<?xml version="1.0" encoding="utf-8" ?>
<svg xmlns="http://www.w3.org/2000/svg" xmlns:ev="http://www.w3.org/2001/xml-events" xmlns:xlink="http://www.w3.org/1999/xlink" baseProfile="full" height="536px" preserveAspectRatio="xMidYMid meet" style="font-family: times, serif; font-weight: normal; font-style: normal; font-size: 16px;" version="1.1" viewBox="0,0,640.0,536.0" width="640px">
  <defs/>
  <svg width="100%" x="0" y="0px">
    <defs/>
  </svg>
  <svg width="90%" x="0%" y="32px">
    <defs/>
    <svg width="100%" x="0" y="0px">
      <defs/>
      <text text-anchor="middle" x="50%" y="16px">X_15=0</text>
    </svg>
    <svg width="90.2778%" x="0%" y="48px">
      <defs/>
      <svg width="100%" x="0" y="0px">
        <defs/>
        <text text-anchor="middle" x="50%" y="16px">X_3=0</text>
      </svg>
      <svg width="89.2308%" x="0%" y="48px">
        <defs/>
        <svg width="100%" x="0" y="0px">
          <defs/>
          <text text-anchor="middle" x="50%" y="16px">X_7=0</text>
        </svg>
        <svg width="86.2069%" x="0%" y="48px">
          <defs/>
          <svg width="100%" x="0" y="0px">
            <defs/>
            <text text-anchor="middle" x="50%" y="16px">X_10=0</text>
          </svg>
          <svg width="84%" x="0%" y="48px">
            <defs/>
            <svg width="100%" x="0" y="0px">
              <defs/>
              <text text-anchor="middle" x="50%" y="16px">X_11=0</text>
            </svg>
            <svg width="83.3333%" x="0%" y="48px">
              <defs/>
              <svg width="100%" x="0" y="0px">
                <defs/>
                <text text-anchor="middle" x="50%" y="16px">X_2=0</text>
              </svg>
              <svg width="80%" x="0%" y="48px">
                <defs/>
                <svg width="100%" x="0" y="0px">
                  <defs/>
                  <text text-anchor="middle" x="50%" y="16px">X_6=0</text>
                </svg>
                <svg width="75%" x="0%" y="48px">
                  <defs/>
                  <svg width="100%" x="0" y="0px">
                    <defs/>
                    <text text-anchor="middle" x="50%" y="16px">X_9=0</text>
                  </svg>
                  <svg width="66.6667%" x="0%" y="48px">
                    <defs/>
                    <svg width="100%" x="0" y="0px">
                      <defs/>
                      <text text-anchor="middle" x="50%" y="16px">X_1=0</text>
                    </svg>
                    <svg width="50%" x="0%" y="48px">
                      <defs/>
                      <svg width="100%" x="0" y="0px">
                        <defs/>
                        <text text-anchor="middle" x="50%" y="16px">X_5=0</text>
                      </svg>
                      <svg width="100%" x="0%" y="48px">
                        <defs/>
                        <svg width="100%" x="0" y="0px">
                          <defs/>
                          <text text-anchor="middle" x="50%" y="16px">Y=1</text>
                        </svg>
                      </svg>
                      <line stroke="black" x1="50%" x2="50%" y1="19.2px" y2="48px"/>
                    </svg>
                    <line stroke="black" x1="50%" x2="25%" y1="19.2px" y2="48px"/>
                    <svg width="50%" x="50%" y="48px">
                      <defs/>
                      <svg width="100%" x="0" y="0px">
                        <defs/>
                        <text text-anchor="middle" x="50%" y="16px">X_5=1</text>
                      </svg>
                      <svg width="100%" x="0%" y="48px">
                        <defs/>
                        <svg width="100%" x="0" y="0px">
                          <defs/>
                          <text text-anchor="middle" x="50%" y="16px">Y=2</text>
                        </svg>
                      </svg>
                      <line stroke="black" x1="50%" x2="50%" y1="19.2px" y2="48px"/>
                    </svg>
                    <line stroke="black" x1="50%" x2="75%" y1="19.2px" y2="48px"/>
                  </svg>
                  <line stroke="black" x1="50%" x2="33.3333%" y1="19.2px" y2="48px"/>
                  <svg width="33.3333%" x="66.6667%" y="48px">
                    <defs/>
                    <svg width="100%" x="0" y="0px">
                      <defs/>
                      <text text-anchor="middle" x="50%" y="16px">X_1=1</text>
                    </svg>
                    <svg width="100%" x="0%" y="48px">
                      <defs/>
                      <svg width="100%" x="0" y="0px">
                        <defs/>
                        <text text-anchor="middle" x="50%" y="16px">Y=2</text>
                      </svg>
                    </svg>
                    <line stroke="black" x1="50%" x2="50%" y1="19.2px" y2="48px"/>
                  </svg>
                  <line stroke="black" x1="50%" x2="83.3333%" y1="19.2px" y2="48px"/>
                </svg>
                <line stroke="black" x1="50%" x2="37.5%" y1="19.2px" y2="48px"/>
                <svg width="25%" x="75%" y="48px">
                  <defs/>
                  <svg width="100%" x="0" y="0px">
                    <defs/>
                    <text text-anchor="middle" x="50%" y="16px">X_9=1</text>
                  </svg>
                  <svg width="100%" x="0%" y="48px">
                    <defs/>
                    <svg width="100%" x="0" y="0px">
                      <defs/>
                      <text text-anchor="middle" x="50%" y="16px">Y=1</text>
                    </svg>
                  </svg>
                  <line stroke="black" x1="50%" x2="50%" y1="19.2px" y2="48px"/>
                </svg>
                <line stroke="black" x1="50%" x2="87.5%" y1="19.2px" y2="48px"/>
              </svg>
              <line stroke="black" x1="50%" x2="40%" y1="19.2px" y2="48px"/>
              <svg width="20%" x="80%" y="48px">
                <defs/>
                <svg width="100%" x="0" y="0px">
                  <defs/>
                  <text text-anchor="middle" x="50%" y="16px">X_6=1</text>
                </svg>
                <svg width="100%" x="0%" y="48px">
                  <defs/>
                  <svg width="100%" x="0" y="0px">
                    <defs/>
                    <text text-anchor="middle" x="50%" y="16px">Y=2</text>
                  </svg>
                </svg>
                <line stroke="black" x1="50%" x2="50%" y1="19.2px" y2="48px"/>
              </svg>
              <line stroke="black" x1="50%" x2="90%" y1="19.2px" y2="48px"/>
            </svg>
            <line stroke="black" x1="50%" x2="41.6667%" y1="19.2px" y2="48px"/>
            <svg width="16.6667%" x="83.3333%" y="48px">
              <defs/>
              <svg width="100%" x="0" y="0px">
                <defs/>
                <text text-anchor="middle" x="50%" y="16px">X_2=1</text>
              </svg>
              <svg width="100%" x="0%" y="48px">
                <defs/>
                <svg width="100%" x="0" y="0px">
                  <defs/>
                  <text text-anchor="middle" x="50%" y="16px">Y=2</text>
                </svg>
              </svg>
              <line stroke="black" x1="50%" x2="50%" y1="19.2px" y2="48px"/>
            </svg>
            <line stroke="black" x1="50%" x2="91.6667%" y1="19.2px" y2="48px"/>
          </svg>
          <line stroke="black" x1="50%" x2="42%" y1="19.2px" y2="48px"/>
          <svg width="16%" x="84%" y="48px">
            <defs/>
            <svg width="100%" x="0" y="0px">
              <defs/>
              <text text-anchor="middle" x="50%" y="16px">X_11=1</text>
            </svg>
            <svg width="100%" x="0%" y="48px">
              <defs/>
              <svg width="100%" x="0" y="0px">
                <defs/>
                <text text-anchor="middle" x="50%" y="16px">Y=1</text>
              </svg>
            </svg>
            <line stroke="black" x1="50%" x2="50%" y1="19.2px" y2="48px"/>
          </svg>
          <line stroke="black" x1="50%" x2="92%" y1="19.2px" y2="48px"/>
        </svg>
        <line stroke="black" x1="50%" x2="43.1034%" y1="19.2px" y2="48px"/>
        <svg width="13.7931%" x="86.2069%" y="48px">
          <defs/>
          <svg width="100%" x="0" y="0px">
            <defs/>
            <text text-anchor="middle" x="50%" y="16px">X_10=1</text>
          </svg>
          <svg width="100%" x="0%" y="48px">
            <defs/>
            <svg width="100%" x="0" y="0px">
              <defs/>
              <text text-anchor="middle" x="50%" y="16px">Y=1</text>
            </svg>
          </svg>
          <line stroke="black" x1="50%" x2="50%" y1="19.2px" y2="48px"/>
        </svg>
        <line stroke="black" x1="50%" x2="93.1034%" y1="19.2px" y2="48px"/>
      </svg>
      <line stroke="black" x1="50%" x2="44.6154%" y1="19.2px" y2="48px"/>
      <svg width="10.7692%" x="89.2308%" y="48px">
        <defs/>
        <svg width="100%" x="0" y="0px">
          <defs/>
          <text text-anchor="middle" x="50%" y="16px">X_7=1</text>
        </svg>
        <svg width="100%" x="0%" y="48px">
          <defs/>
          <svg width="100%" x="0" y="0px">
            <defs/>
            <text text-anchor="middle" x="50%" y="16px">Y=2</text>
          </svg>
        </svg>
        <line stroke="black" x1="50%" x2="50%" y1="19.2px" y2="48px"/>
      </svg>
      <line stroke="black" x1="50%" x2="94.6154%" y1="19.2px" y2="48px"/>
    </svg>
    <line stroke="black" x1="50%" x2="45.1389%" y1="19.2px" y2="48px"/>
    <svg width="9.72222%" x="90.2778%" y="48px">
      <defs/>
      <svg width="100%" x="0" y="0px">
        <defs/>
        <text text-anchor="middle" x="50%" y="16px">X_3=1</text>
      </svg>
      <svg width="100%" x="0%" y="48px">
        <defs/>
        <svg width="100%" x="0" y="0px">
          <defs/>
          <text text-anchor="middle" x="50%" y="16px">Y=2</text>
        </svg>
      </svg>
      <line stroke="black" x1="50%" x2="50%" y1="19.2px" y2="48px"/>
    </svg>
    <line stroke="black" x1="50%" x2="95.1389%" y1="19.2px" y2="48px"/>
  </svg>
  <line stroke="black" x1="50%" x2="45%" y1="0px" y2="32px"/>
  <svg width="10%" x="90%" y="32px">
    <defs/>
    <svg width="100%" x="0" y="0px">
      <defs/>
      <text text-anchor="middle" x="50%" y="16px">X_15=1</text>
    </svg>
    <svg width="100%" x="0%" y="48px">
      <defs/>
      <svg width="100%" x="0" y="0px">
        <defs/>
        <text text-anchor="middle" x="50%" y="16px">Y=1</text>
      </svg>
    </svg>
    <line stroke="black" x1="50%" x2="50%" y1="19.2px" y2="48px"/>
  </svg>
  <line stroke="black" x1="50%" x2="95%" y1="0px" y2="32px"/>
</svg>
