<?xml version="1.0" encoding="utf-8" ?>
<svg xmlns="http://www.w3.org/2000/svg" xmlns:ev="http://www.w3.org/2001/xml-events" xmlns:xlink="http://www.w3.org/1999/xlink" baseProfile="full" height="440px" preserveAspectRatio="xMidYMid meet" style="font-family: times, serif; font-weight: normal; font-style: normal; font-size: 16px;" version="1.1" viewBox="0,0,544.0,440.0" width="544px">
  <defs/>
  <svg width="100%" x="0" y="0px">
    <defs/>
  </svg>
  <svg width="89.7059%" x="0%" y="32px">
    <defs/>
    <svg width="100%" x="0" y="0px">
      <defs/>
      <text text-anchor="middle" x="50%" y="16px">X_5=0</text>
    </svg>
    <svg width="86.8852%" x="0%" y="48px">
      <defs/>
      <svg width="100%" x="0" y="0px">
        <defs/>
        <text text-anchor="middle" x="50%" y="16px">X_15=0</text>
      </svg>
      <svg width="86.7925%" x="0%" y="48px">
        <defs/>
        <svg width="100%" x="0" y="0px">
          <defs/>
          <text text-anchor="middle" x="50%" y="16px">X_0=0</text>
        </svg>
        <svg width="82.6087%" x="0%" y="48px">
          <defs/>
          <svg width="100%" x="0" y="0px">
            <defs/>
            <text text-anchor="middle" x="50%" y="16px">X_10=0</text>
          </svg>
          <svg width="81.5789%" x="0%" y="48px">
            <defs/>
            <svg width="100%" x="0" y="0px">
              <defs/>
              <text text-anchor="middle" x="50%" y="16px">X_1=0</text>
            </svg>
            <svg width="74.1935%" x="0%" y="48px">
              <defs/>
              <svg width="100%" x="0" y="0px">
                <defs/>
                <text text-anchor="middle" x="50%" y="16px">X_11=0</text>
              </svg>
              <svg width="69.5652%" x="0%" y="48px">
                <defs/>
                <svg width="100%" x="0" y="0px">
                  <defs/>
                  <text text-anchor="middle" x="50%" y="16px">X_6=0</text>
                </svg>
                <svg width="50%" x="0%" y="48px">
                  <defs/>
                  <svg width="100%" x="0" y="0px">
                    <defs/>
                    <text text-anchor="middle" x="50%" y="16px">X_19=0</text>
                  </svg>
                  <svg width="100%" x="0%" y="48px">
                    <defs/>
                    <svg width="100%" x="0" y="0px">
                      <defs/>
                      <text text-anchor="middle" x="50%" y="16px">Y=2</text>
                    </svg>
                  </svg>
                  <line stroke="black" x1="50%" x2="50%" y1="19.2px" y2="48px"/>
                </svg>
                <line stroke="black" x1="50%" x2="25%" y1="19.2px" y2="48px"/>
                <svg width="50%" x="50%" y="48px">
                  <defs/>
                  <svg width="100%" x="0" y="0px">
                    <defs/>
                    <text text-anchor="middle" x="50%" y="16px">X_19=1</text>
                  </svg>
                  <svg width="100%" x="0%" y="48px">
                    <defs/>
                    <svg width="100%" x="0" y="0px">
                      <defs/>
                      <text text-anchor="middle" x="50%" y="16px">Y=1</text>
                    </svg>
                  </svg>
                  <line stroke="black" x1="50%" x2="50%" y1="19.2px" y2="48px"/>
                </svg>
                <line stroke="black" x1="50%" x2="75%" y1="19.2px" y2="48px"/>
              </svg>
              <line stroke="black" x1="50%" x2="34.7826%" y1="19.2px" y2="48px"/>
              <svg width="30.4348%" x="69.5652%" y="48px">
                <defs/>
                <svg width="100%" x="0" y="0px">
                  <defs/>
                  <text text-anchor="middle" x="50%" y="16px">X_6=1</text>
                </svg>
                <svg width="100%" x="0%" y="48px">
                  <defs/>
                  <svg width="100%" x="0" y="0px">
                    <defs/>
                    <text text-anchor="middle" x="50%" y="16px">Y=1</text>
                  </svg>
                </svg>
                <line stroke="black" x1="50%" x2="50%" y1="19.2px" y2="48px"/>
              </svg>
              <line stroke="black" x1="50%" x2="84.7826%" y1="19.2px" y2="48px"/>
            </svg>
            <line stroke="black" x1="50%" x2="37.0968%" y1="19.2px" y2="48px"/>
            <svg width="25.8065%" x="74.1935%" y="48px">
              <defs/>
              <svg width="100%" x="0" y="0px">
                <defs/>
                <text text-anchor="middle" x="50%" y="16px">X_11=1</text>
              </svg>
              <svg width="100%" x="0%" y="48px">
                <defs/>
                <svg width="100%" x="0" y="0px">
                  <defs/>
                  <text text-anchor="middle" x="50%" y="16px">Y=2</text>
                </svg>
              </svg>
              <line stroke="black" x1="50%" x2="50%" y1="19.2px" y2="48px"/>
            </svg>
            <line stroke="black" x1="50%" x2="87.0968%" y1="19.2px" y2="48px"/>
          </svg>
          <line stroke="black" x1="50%" x2="40.7895%" y1="19.2px" y2="48px"/>
          <svg width="18.4211%" x="81.5789%" y="48px">
            <defs/>
            <svg width="100%" x="0" y="0px">
              <defs/>
              <text text-anchor="middle" x="50%" y="16px">X_1=1</text>
            </svg>
            <svg width="100%" x="0%" y="48px">
              <defs/>
              <svg width="100%" x="0" y="0px">
                <defs/>
                <text text-anchor="middle" x="50%" y="16px">Y=1</text>
              </svg>
            </svg>
            <line stroke="black" x1="50%" x2="50%" y1="19.2px" y2="48px"/>
          </svg>
          <line stroke="black" x1="50%" x2="90.7895%" y1="19.2px" y2="48px"/>
        </svg>
        <line stroke="black" x1="50%" x2="41.3043%" y1="19.2px" y2="48px"/>
        <svg width="17.3913%" x="82.6087%" y="48px">
          <defs/>
          <svg width="100%" x="0" y="0px">
            <defs/>
            <text text-anchor="middle" x="50%" y="16px">X_10=1</text>
          </svg>
          <svg width="100%" x="0%" y="48px">
            <defs/>
            <svg width="100%" x="0" y="0px">
              <defs/>
              <text text-anchor="middle" x="50%" y="16px">Y=2</text>
            </svg>
          </svg>
          <line stroke="black" x1="50%" x2="50%" y1="19.2px" y2="48px"/>
        </svg>
        <line stroke="black" x1="50%" x2="91.3043%" y1="19.2px" y2="48px"/>
      </svg>
      <line stroke="black" x1="50%" x2="43.3962%" y1="19.2px" y2="48px"/>
      <svg width="13.2075%" x="86.7925%" y="48px">
        <defs/>
        <svg width="100%" x="0" y="0px">
          <defs/>
          <text text-anchor="middle" x="50%" y="16px">X_0=1</text>
        </svg>
        <svg width="100%" x="0%" y="48px">
          <defs/>
          <svg width="100%" x="0" y="0px">
            <defs/>
            <text text-anchor="middle" x="50%" y="16px">Y=1</text>
          </svg>
        </svg>
        <line stroke="black" x1="50%" x2="50%" y1="19.2px" y2="48px"/>
      </svg>
      <line stroke="black" x1="50%" x2="93.3962%" y1="19.2px" y2="48px"/>
    </svg>
    <line stroke="black" x1="50%" x2="43.4426%" y1="19.2px" y2="48px"/>
    <svg width="13.1148%" x="86.8852%" y="48px">
      <defs/>
      <svg width="100%" x="0" y="0px">
        <defs/>
        <text text-anchor="middle" x="50%" y="16px">X_15=1</text>
      </svg>
      <svg width="100%" x="0%" y="48px">
        <defs/>
        <svg width="100%" x="0" y="0px">
          <defs/>
          <text text-anchor="middle" x="50%" y="16px">Y=2</text>
        </svg>
      </svg>
      <line stroke="black" x1="50%" x2="50%" y1="19.2px" y2="48px"/>
    </svg>
    <line stroke="black" x1="50%" x2="93.4426%" y1="19.2px" y2="48px"/>
  </svg>
  <line stroke="black" x1="50%" x2="44.8529%" y1="0px" y2="32px"/>
  <svg width="10.2941%" x="89.7059%" y="32px">
    <defs/>
    <svg width="100%" x="0" y="0px">
      <defs/>
      <text text-anchor="middle" x="50%" y="16px">X_5=1</text>
    </svg>
    <svg width="100%" x="0%" y="48px">
      <defs/>
      <svg width="100%" x="0" y="0px">
        <defs/>
        <text text-anchor="middle" x="50%" y="16px">Y=1</text>
      </svg>
    </svg>
    <line stroke="black" x1="50%" x2="50%" y1="19.2px" y2="48px"/>
  </svg>
  <line stroke="black" x1="50%" x2="94.8529%" y1="0px" y2="32px"/>
</svg>
