<?xml version="1.0" encoding="utf-8" ?>
<svg xmlns="http://www.w3.org/2000/svg" xmlns:ev="http://www.w3.org/2001/xml-events" xmlns:xlink="http://www.w3.org/1999/xlink" baseProfile="full" height="440px" preserveAspectRatio="xMidYMid meet" style="font-family: times, serif; font-weight: normal; font-style: normal; font-size: 16px;" version="1.1" viewBox="0,0,928.0,440.0" width="928px">
  <defs/>
  <svg width="100%" x="0" y="0px">
    <defs/>
  </svg>
  <svg width="93.1034%" x="0%" y="32px">
    <defs/>
    <svg width="100%" x="0" y="0px">
      <defs/>
      <text text-anchor="middle" x="50%" y="16px">X_12=0</text>
    </svg>
    <svg width="92.5926%" x="0%" y="48px">
      <defs/>
      <svg width="100%" x="0" y="0px">
        <defs/>
        <text text-anchor="middle" x="50%" y="16px">X_19=0</text>
      </svg>
      <svg width="86%" x="0%" y="48px">
        <defs/>
        <svg width="100%" x="0" y="0px">
          <defs/>
          <text text-anchor="middle" x="50%" y="16px">X_4=0</text>
        </svg>
        <svg width="75.5814%" x="0%" y="48px">
          <defs/>
          <svg width="100%" x="0" y="0px">
            <defs/>
            <text text-anchor="middle" x="50%" y="16px">X_7=0</text>
          </svg>
          <svg width="53.8462%" x="0%" y="48px">
            <defs/>
            <svg width="100%" x="0" y="0px">
              <defs/>
              <text text-anchor="middle" x="50%" y="16px">X_18=0</text>
            </svg>
            <svg width="80%" x="0%" y="48px">
              <defs/>
              <svg width="100%" x="0" y="0px">
                <defs/>
                <text text-anchor="middle" x="50%" y="16px">X_2=0</text>
              </svg>
              <svg width="50%" x="0%" y="48px">
                <defs/>
                <svg width="100%" x="0" y="0px">
                  <defs/>
                  <text text-anchor="middle" x="50%" y="16px">X_17=0</text>
                </svg>
                <svg width="50%" x="0%" y="48px">
                  <defs/>
                  <svg width="100%" x="0" y="0px">
                    <defs/>
                    <text text-anchor="middle" x="50%" y="16px">X_1=0</text>
                  </svg>
                  <svg width="100%" x="0%" y="48px">
                    <defs/>
                    <svg width="100%" x="0" y="0px">
                      <defs/>
                      <text text-anchor="middle" x="50%" y="16px">Y=0</text>
                    </svg>
                  </svg>
                  <line stroke="black" x1="50%" x2="50%" y1="19.2px" y2="48px"/>
                </svg>
                <line stroke="black" x1="50%" x2="25%" y1="19.2px" y2="48px"/>
                <svg width="50%" x="50%" y="48px">
                  <defs/>
                  <svg width="100%" x="0" y="0px">
                    <defs/>
                    <text text-anchor="middle" x="50%" y="16px">X_1=1</text>
                  </svg>
                  <svg width="100%" x="0%" y="48px">
                    <defs/>
                    <svg width="100%" x="0" y="0px">
                      <defs/>
                      <text text-anchor="middle" x="50%" y="16px">Y=1</text>
                    </svg>
                  </svg>
                  <line stroke="black" x1="50%" x2="50%" y1="19.2px" y2="48px"/>
                </svg>
                <line stroke="black" x1="50%" x2="75%" y1="19.2px" y2="48px"/>
              </svg>
              <line stroke="black" x1="50%" x2="25%" y1="19.2px" y2="48px"/>
              <svg width="50%" x="50%" y="48px">
                <defs/>
                <svg width="100%" x="0" y="0px">
                  <defs/>
                  <text text-anchor="middle" x="50%" y="16px">X_17=1</text>
                </svg>
                <svg width="50%" x="0%" y="48px">
                  <defs/>
                  <svg width="100%" x="0" y="0px">
                    <defs/>
                    <text text-anchor="middle" x="50%" y="16px">X_1=0</text>
                  </svg>
                  <svg width="100%" x="0%" y="48px">
                    <defs/>
                    <svg width="100%" x="0" y="0px">
                      <defs/>
                      <text text-anchor="middle" x="50%" y="16px">Y=2</text>
                    </svg>
                  </svg>
                  <line stroke="black" x1="50%" x2="50%" y1="19.2px" y2="48px"/>
                </svg>
                <line stroke="black" x1="50%" x2="25%" y1="19.2px" y2="48px"/>
                <svg width="50%" x="50%" y="48px">
                  <defs/>
                  <svg width="100%" x="0" y="0px">
                    <defs/>
                    <text text-anchor="middle" x="50%" y="16px">X_1=1</text>
                  </svg>
                  <svg width="100%" x="0%" y="48px">
                    <defs/>
                    <svg width="100%" x="0" y="0px">
                      <defs/>
                      <text text-anchor="middle" x="50%" y="16px">Y=0</text>
                    </svg>
                  </svg>
                  <line stroke="black" x1="50%" x2="50%" y1="19.2px" y2="48px"/>
                </svg>
                <line stroke="black" x1="50%" x2="75%" y1="19.2px" y2="48px"/>
              </svg>
              <line stroke="black" x1="50%" x2="75%" y1="19.2px" y2="48px"/>
            </svg>
            <line stroke="black" x1="50%" x2="40%" y1="19.2px" y2="48px"/>
            <svg width="20%" x="80%" y="48px">
              <defs/>
              <svg width="100%" x="0" y="0px">
                <defs/>
                <text text-anchor="middle" x="50%" y="16px">X_2=1</text>
              </svg>
              <svg width="100%" x="0%" y="48px">
                <defs/>
                <svg width="100%" x="0" y="0px">
                  <defs/>
                  <text text-anchor="middle" x="50%" y="16px">Y=0</text>
                </svg>
              </svg>
              <line stroke="black" x1="50%" x2="50%" y1="19.2px" y2="48px"/>
            </svg>
            <line stroke="black" x1="50%" x2="90%" y1="19.2px" y2="48px"/>
          </svg>
          <line stroke="black" x1="50%" x2="26.9231%" y1="19.2px" y2="48px"/>
          <svg width="46.1538%" x="53.8462%" y="48px">
            <defs/>
            <svg width="100%" x="0" y="0px">
              <defs/>
              <text text-anchor="middle" x="50%" y="16px">X_18=1</text>
            </svg>
            <svg width="76.6667%" x="0%" y="48px">
              <defs/>
              <svg width="100%" x="0" y="0px">
                <defs/>
                <text text-anchor="middle" x="50%" y="16px">X_0=0</text>
              </svg>
              <svg width="69.5652%" x="0%" y="48px">
                <defs/>
                <svg width="100%" x="0" y="0px">
                  <defs/>
                  <text text-anchor="middle" x="50%" y="16px">X_3=0</text>
                </svg>
                <svg width="50%" x="0%" y="48px">
                  <defs/>
                  <svg width="100%" x="0" y="0px">
                    <defs/>
                    <text text-anchor="middle" x="50%" y="16px">X_17=0</text>
                  </svg>
                  <svg width="100%" x="0%" y="48px">
                    <defs/>
                    <svg width="100%" x="0" y="0px">
                      <defs/>
                      <text text-anchor="middle" x="50%" y="16px">Y=3</text>
                    </svg>
                  </svg>
                  <line stroke="black" x1="50%" x2="50%" y1="19.2px" y2="48px"/>
                </svg>
                <line stroke="black" x1="50%" x2="25%" y1="19.2px" y2="48px"/>
                <svg width="50%" x="50%" y="48px">
                  <defs/>
                  <svg width="100%" x="0" y="0px">
                    <defs/>
                    <text text-anchor="middle" x="50%" y="16px">X_17=1</text>
                  </svg>
                  <svg width="100%" x="0%" y="48px">
                    <defs/>
                    <svg width="100%" x="0" y="0px">
                      <defs/>
                      <text text-anchor="middle" x="50%" y="16px">Y=1</text>
                    </svg>
                  </svg>
                  <line stroke="black" x1="50%" x2="50%" y1="19.2px" y2="48px"/>
                </svg>
                <line stroke="black" x1="50%" x2="75%" y1="19.2px" y2="48px"/>
              </svg>
              <line stroke="black" x1="50%" x2="34.7826%" y1="19.2px" y2="48px"/>
              <svg width="30.4348%" x="69.5652%" y="48px">
                <defs/>
                <svg width="100%" x="0" y="0px">
                  <defs/>
                  <text text-anchor="middle" x="50%" y="16px">X_3=1</text>
                </svg>
                <svg width="100%" x="0%" y="48px">
                  <defs/>
                  <svg width="100%" x="0" y="0px">
                    <defs/>
                    <text text-anchor="middle" x="50%" y="16px">Y=0</text>
                  </svg>
                </svg>
                <line stroke="black" x1="50%" x2="50%" y1="19.2px" y2="48px"/>
              </svg>
              <line stroke="black" x1="50%" x2="84.7826%" y1="19.2px" y2="48px"/>
            </svg>
            <line stroke="black" x1="50%" x2="38.3333%" y1="19.2px" y2="48px"/>
            <svg width="23.3333%" x="76.6667%" y="48px">
              <defs/>
              <svg width="100%" x="0" y="0px">
                <defs/>
                <text text-anchor="middle" x="50%" y="16px">X_0=1</text>
              </svg>
              <svg width="100%" x="0%" y="48px">
                <defs/>
                <svg width="100%" x="0" y="0px">
                  <defs/>
                  <text text-anchor="middle" x="50%" y="16px">Y=0</text>
                </svg>
              </svg>
              <line stroke="black" x1="50%" x2="50%" y1="19.2px" y2="48px"/>
            </svg>
            <line stroke="black" x1="50%" x2="88.3333%" y1="19.2px" y2="48px"/>
          </svg>
          <line stroke="black" x1="50%" x2="76.9231%" y1="19.2px" y2="48px"/>
        </svg>
        <line stroke="black" x1="50%" x2="37.7907%" y1="19.2px" y2="48px"/>
        <svg width="24.4186%" x="75.5814%" y="48px">
          <defs/>
          <svg width="100%" x="0" y="0px">
            <defs/>
            <text text-anchor="middle" x="50%" y="16px">X_7=1</text>
          </svg>
          <svg width="66.6667%" x="0%" y="48px">
            <defs/>
            <svg width="100%" x="0" y="0px">
              <defs/>
              <text text-anchor="middle" x="50%" y="16px">X_0=0</text>
            </svg>
            <svg width="50%" x="0%" y="48px">
              <defs/>
              <svg width="100%" x="0" y="0px">
                <defs/>
                <text text-anchor="middle" x="50%" y="16px">X_3=0</text>
              </svg>
              <svg width="100%" x="0%" y="48px">
                <defs/>
                <svg width="100%" x="0" y="0px">
                  <defs/>
                  <text text-anchor="middle" x="50%" y="16px">Y=0</text>
                </svg>
              </svg>
              <line stroke="black" x1="50%" x2="50%" y1="19.2px" y2="48px"/>
            </svg>
            <line stroke="black" x1="50%" x2="25%" y1="19.2px" y2="48px"/>
            <svg width="50%" x="50%" y="48px">
              <defs/>
              <svg width="100%" x="0" y="0px">
                <defs/>
                <text text-anchor="middle" x="50%" y="16px">X_3=1</text>
              </svg>
              <svg width="100%" x="0%" y="48px">
                <defs/>
                <svg width="100%" x="0" y="0px">
                  <defs/>
                  <text text-anchor="middle" x="50%" y="16px">Y=2</text>
                </svg>
              </svg>
              <line stroke="black" x1="50%" x2="50%" y1="19.2px" y2="48px"/>
            </svg>
            <line stroke="black" x1="50%" x2="75%" y1="19.2px" y2="48px"/>
          </svg>
          <line stroke="black" x1="50%" x2="33.3333%" y1="19.2px" y2="48px"/>
          <svg width="33.3333%" x="66.6667%" y="48px">
            <defs/>
            <svg width="100%" x="0" y="0px">
              <defs/>
              <text text-anchor="middle" x="50%" y="16px">X_0=1</text>
            </svg>
            <svg width="100%" x="0%" y="48px">
              <defs/>
              <svg width="100%" x="0" y="0px">
                <defs/>
                <text text-anchor="middle" x="50%" y="16px">Y=2</text>
              </svg>
            </svg>
            <line stroke="black" x1="50%" x2="50%" y1="19.2px" y2="48px"/>
          </svg>
          <line stroke="black" x1="50%" x2="83.3333%" y1="19.2px" y2="48px"/>
        </svg>
        <line stroke="black" x1="50%" x2="87.7907%" y1="19.2px" y2="48px"/>
      </svg>
      <line stroke="black" x1="50%" x2="43%" y1="19.2px" y2="48px"/>
      <svg width="14%" x="86%" y="48px">
        <defs/>
        <svg width="100%" x="0" y="0px">
          <defs/>
          <text text-anchor="middle" x="50%" y="16px">X_4=1</text>
        </svg>
        <svg width="50%" x="0%" y="48px">
          <defs/>
          <svg width="100%" x="0" y="0px">
            <defs/>
            <text text-anchor="middle" x="50%" y="16px">X_3=0</text>
          </svg>
          <svg width="100%" x="0%" y="48px">
            <defs/>
            <svg width="100%" x="0" y="0px">
              <defs/>
              <text text-anchor="middle" x="50%" y="16px">Y=0</text>
            </svg>
          </svg>
          <line stroke="black" x1="50%" x2="50%" y1="19.2px" y2="48px"/>
        </svg>
        <line stroke="black" x1="50%" x2="25%" y1="19.2px" y2="48px"/>
        <svg width="50%" x="50%" y="48px">
          <defs/>
          <svg width="100%" x="0" y="0px">
            <defs/>
            <text text-anchor="middle" x="50%" y="16px">X_3=1</text>
          </svg>
          <svg width="100%" x="0%" y="48px">
            <defs/>
            <svg width="100%" x="0" y="0px">
              <defs/>
              <text text-anchor="middle" x="50%" y="16px">Y=2</text>
            </svg>
          </svg>
          <line stroke="black" x1="50%" x2="50%" y1="19.2px" y2="48px"/>
        </svg>
        <line stroke="black" x1="50%" x2="75%" y1="19.2px" y2="48px"/>
      </svg>
      <line stroke="black" x1="50%" x2="93%" y1="19.2px" y2="48px"/>
    </svg>
    <line stroke="black" x1="50%" x2="46.2963%" y1="19.2px" y2="48px"/>
    <svg width="7.40741%" x="92.5926%" y="48px">
      <defs/>
      <svg width="100%" x="0" y="0px">
        <defs/>
        <text text-anchor="middle" x="50%" y="16px">X_19=1</text>
      </svg>
      <svg width="100%" x="0%" y="48px">
        <defs/>
        <svg width="100%" x="0" y="0px">
          <defs/>
          <text text-anchor="middle" x="50%" y="16px">Y=2</text>
        </svg>
      </svg>
      <line stroke="black" x1="50%" x2="50%" y1="19.2px" y2="48px"/>
    </svg>
    <line stroke="black" x1="50%" x2="96.2963%" y1="19.2px" y2="48px"/>
  </svg>
  <line stroke="black" x1="50%" x2="46.5517%" y1="0px" y2="32px"/>
  <svg width="6.89655%" x="93.1034%" y="32px">
    <defs/>
    <svg width="100%" x="0" y="0px">
      <defs/>
      <text text-anchor="middle" x="50%" y="16px">X_12=1</text>
    </svg>
    <svg width="100%" x="0%" y="48px">
      <defs/>
      <svg width="100%" x="0" y="0px">
        <defs/>
        <text text-anchor="middle" x="50%" y="16px">Y=2</text>
      </svg>
    </svg>
    <line stroke="black" x1="50%" x2="50%" y1="19.2px" y2="48px"/>
  </svg>
  <line stroke="black" x1="50%" x2="96.5517%" y1="0px" y2="32px"/>
</svg>
