<?xml version="1.0" encoding="utf-8" ?>
<svg xmlns="http://www.w3.org/2000/svg" xmlns:ev="http://www.w3.org/2001/xml-events" xmlns:xlink="http://www.w3.org/1999/xlink" baseProfile="full" height="440px" preserveAspectRatio="xMidYMid meet" style="font-family: times, serif; font-weight: normal; font-style: normal; font-size: 16px;" version="1.1" viewBox="0,0,904.0,440.0" width="904px">
  <defs/>
  <svg width="100%" x="0" y="0px">
    <defs/>
  </svg>
  <svg width="92.9204%" x="0%" y="32px">
    <defs/>
    <svg width="100%" x="0" y="0px">
      <defs/>
      <text text-anchor="middle" x="50%" y="16px">X_13=0</text>
    </svg>
    <svg width="57.1429%" x="0%" y="48px">
      <defs/>
      <svg width="100%" x="0" y="0px">
        <defs/>
        <text text-anchor="middle" x="50%" y="16px">X_9=0</text>
      </svg>
      <svg width="13.3333%" x="0%" y="48px">
        <defs/>
        <svg width="100%" x="0" y="0px">
          <defs/>
          <text text-anchor="middle" x="50%" y="16px">X_10=0</text>
        </svg>
        <svg width="100%" x="0%" y="48px">
          <defs/>
          <svg width="100%" x="0" y="0px">
            <defs/>
            <text text-anchor="middle" x="50%" y="16px">Y=2</text>
          </svg>
        </svg>
        <line stroke="black" x1="50%" x2="50%" y1="19.2px" y2="48px"/>
      </svg>
      <line stroke="black" x1="50%" x2="6.66667%" y1="19.2px" y2="48px"/>
      <svg width="86.6667%" x="13.3333%" y="48px">
        <defs/>
        <svg width="100%" x="0" y="0px">
          <defs/>
          <text text-anchor="middle" x="50%" y="16px">X_10=1</text>
        </svg>
        <svg width="86.5385%" x="0%" y="48px">
          <defs/>
          <svg width="100%" x="0" y="0px">
            <defs/>
            <text text-anchor="middle" x="50%" y="16px">X_1=0</text>
          </svg>
          <svg width="82.2222%" x="0%" y="48px">
            <defs/>
            <svg width="100%" x="0" y="0px">
              <defs/>
              <text text-anchor="middle" x="50%" y="16px">X_12=0</text>
            </svg>
            <svg width="37.8378%" x="0%" y="48px">
              <defs/>
              <svg width="100%" x="0" y="0px">
                <defs/>
                <text text-anchor="middle" x="50%" y="16px">X_0=0</text>
              </svg>
              <svg width="50%" x="0%" y="48px">
                <defs/>
                <svg width="100%" x="0" y="0px">
                  <defs/>
                  <text text-anchor="middle" x="50%" y="16px">X_5=0</text>
                </svg>
                <svg width="100%" x="0%" y="48px">
                  <defs/>
                  <svg width="100%" x="0" y="0px">
                    <defs/>
                    <text text-anchor="middle" x="50%" y="16px">Y=0</text>
                  </svg>
                </svg>
                <line stroke="black" x1="50%" x2="50%" y1="19.2px" y2="48px"/>
              </svg>
              <line stroke="black" x1="50%" x2="25%" y1="19.2px" y2="48px"/>
              <svg width="50%" x="50%" y="48px">
                <defs/>
                <svg width="100%" x="0" y="0px">
                  <defs/>
                  <text text-anchor="middle" x="50%" y="16px">X_5=1</text>
                </svg>
                <svg width="100%" x="0%" y="48px">
                  <defs/>
                  <svg width="100%" x="0" y="0px">
                    <defs/>
                    <text text-anchor="middle" x="50%" y="16px">Y=2</text>
                  </svg>
                </svg>
                <line stroke="black" x1="50%" x2="50%" y1="19.2px" y2="48px"/>
              </svg>
              <line stroke="black" x1="50%" x2="75%" y1="19.2px" y2="48px"/>
            </svg>
            <line stroke="black" x1="50%" x2="18.9189%" y1="19.2px" y2="48px"/>
            <svg width="62.1622%" x="37.8378%" y="48px">
              <defs/>
              <svg width="100%" x="0" y="0px">
                <defs/>
                <text text-anchor="middle" x="50%" y="16px">X_0=1</text>
              </svg>
              <svg width="69.5652%" x="0%" y="48px">
                <defs/>
                <svg width="100%" x="0" y="0px">
                  <defs/>
                  <text text-anchor="middle" x="50%" y="16px">X_5=0</text>
                </svg>
                <svg width="50%" x="0%" y="48px">
                  <defs/>
                  <svg width="100%" x="0" y="0px">
                    <defs/>
                    <text text-anchor="middle" x="50%" y="16px">X_14=0</text>
                  </svg>
                  <svg width="100%" x="0%" y="48px">
                    <defs/>
                    <svg width="100%" x="0" y="0px">
                      <defs/>
                      <text text-anchor="middle" x="50%" y="16px">Y=3</text>
                    </svg>
                  </svg>
                  <line stroke="black" x1="50%" x2="50%" y1="19.2px" y2="48px"/>
                </svg>
                <line stroke="black" x1="50%" x2="25%" y1="19.2px" y2="48px"/>
                <svg width="50%" x="50%" y="48px">
                  <defs/>
                  <svg width="100%" x="0" y="0px">
                    <defs/>
                    <text text-anchor="middle" x="50%" y="16px">X_14=1</text>
                  </svg>
                  <svg width="100%" x="0%" y="48px">
                    <defs/>
                    <svg width="100%" x="0" y="0px">
                      <defs/>
                      <text text-anchor="middle" x="50%" y="16px">Y=1</text>
                    </svg>
                  </svg>
                  <line stroke="black" x1="50%" x2="50%" y1="19.2px" y2="48px"/>
                </svg>
                <line stroke="black" x1="50%" x2="75%" y1="19.2px" y2="48px"/>
              </svg>
              <line stroke="black" x1="50%" x2="34.7826%" y1="19.2px" y2="48px"/>
              <svg width="30.4348%" x="69.5652%" y="48px">
                <defs/>
                <svg width="100%" x="0" y="0px">
                  <defs/>
                  <text text-anchor="middle" x="50%" y="16px">X_5=1</text>
                </svg>
                <svg width="100%" x="0%" y="48px">
                  <defs/>
                  <svg width="100%" x="0" y="0px">
                    <defs/>
                    <text text-anchor="middle" x="50%" y="16px">Y=0</text>
                  </svg>
                </svg>
                <line stroke="black" x1="50%" x2="50%" y1="19.2px" y2="48px"/>
              </svg>
              <line stroke="black" x1="50%" x2="84.7826%" y1="19.2px" y2="48px"/>
            </svg>
            <line stroke="black" x1="50%" x2="68.9189%" y1="19.2px" y2="48px"/>
          </svg>
          <line stroke="black" x1="50%" x2="41.1111%" y1="19.2px" y2="48px"/>
          <svg width="17.7778%" x="82.2222%" y="48px">
            <defs/>
            <svg width="100%" x="0" y="0px">
              <defs/>
              <text text-anchor="middle" x="50%" y="16px">X_12=1</text>
            </svg>
            <svg width="100%" x="0%" y="48px">
              <defs/>
              <svg width="100%" x="0" y="0px">
                <defs/>
                <text text-anchor="middle" x="50%" y="16px">Y=2</text>
              </svg>
            </svg>
            <line stroke="black" x1="50%" x2="50%" y1="19.2px" y2="48px"/>
          </svg>
          <line stroke="black" x1="50%" x2="91.1111%" y1="19.2px" y2="48px"/>
        </svg>
        <line stroke="black" x1="50%" x2="43.2692%" y1="19.2px" y2="48px"/>
        <svg width="13.4615%" x="86.5385%" y="48px">
          <defs/>
          <svg width="100%" x="0" y="0px">
            <defs/>
            <text text-anchor="middle" x="50%" y="16px">X_1=1</text>
          </svg>
          <svg width="100%" x="0%" y="48px">
            <defs/>
            <svg width="100%" x="0" y="0px">
              <defs/>
              <text text-anchor="middle" x="50%" y="16px">Y=0</text>
            </svg>
          </svg>
          <line stroke="black" x1="50%" x2="50%" y1="19.2px" y2="48px"/>
        </svg>
        <line stroke="black" x1="50%" x2="93.2692%" y1="19.2px" y2="48px"/>
      </svg>
      <line stroke="black" x1="50%" x2="56.6667%" y1="19.2px" y2="48px"/>
    </svg>
    <line stroke="black" x1="50%" x2="28.5714%" y1="19.2px" y2="48px"/>
    <svg width="42.8571%" x="57.1429%" y="48px">
      <defs/>
      <svg width="100%" x="0" y="0px">
        <defs/>
        <text text-anchor="middle" x="50%" y="16px">X_9=1</text>
      </svg>
      <svg width="84.4444%" x="0%" y="48px">
        <defs/>
        <svg width="100%" x="0" y="0px">
          <defs/>
          <text text-anchor="middle" x="50%" y="16px">X_0=0</text>
        </svg>
        <svg width="81.5789%" x="0%" y="48px">
          <defs/>
          <svg width="100%" x="0" y="0px">
            <defs/>
            <text text-anchor="middle" x="50%" y="16px">X_1=0</text>
          </svg>
          <svg width="77.4194%" x="0%" y="48px">
            <defs/>
            <svg width="100%" x="0" y="0px">
              <defs/>
              <text text-anchor="middle" x="50%" y="16px">X_5=0</text>
            </svg>
            <svg width="33.3333%" x="0%" y="48px">
              <defs/>
              <svg width="100%" x="0" y="0px">
                <defs/>
                <text text-anchor="middle" x="50%" y="16px">X_12=0</text>
              </svg>
              <svg width="100%" x="0%" y="48px">
                <defs/>
                <svg width="100%" x="0" y="0px">
                  <defs/>
                  <text text-anchor="middle" x="50%" y="16px">Y=0</text>
                </svg>
              </svg>
              <line stroke="black" x1="50%" x2="50%" y1="19.2px" y2="48px"/>
            </svg>
            <line stroke="black" x1="50%" x2="16.6667%" y1="19.2px" y2="48px"/>
            <svg width="66.6667%" x="33.3333%" y="48px">
              <defs/>
              <svg width="100%" x="0" y="0px">
                <defs/>
                <text text-anchor="middle" x="50%" y="16px">X_12=1</text>
              </svg>
              <svg width="50%" x="0%" y="48px">
                <defs/>
                <svg width="100%" x="0" y="0px">
                  <defs/>
                  <text text-anchor="middle" x="50%" y="16px">X_14=0</text>
                </svg>
                <svg width="100%" x="0%" y="48px">
                  <defs/>
                  <svg width="100%" x="0" y="0px">
                    <defs/>
                    <text text-anchor="middle" x="50%" y="16px">Y=0</text>
                  </svg>
                </svg>
                <line stroke="black" x1="50%" x2="50%" y1="19.2px" y2="48px"/>
              </svg>
              <line stroke="black" x1="50%" x2="25%" y1="19.2px" y2="48px"/>
              <svg width="50%" x="50%" y="48px">
                <defs/>
                <svg width="100%" x="0" y="0px">
                  <defs/>
                  <text text-anchor="middle" x="50%" y="16px">X_14=1</text>
                </svg>
                <svg width="100%" x="0%" y="48px">
                  <defs/>
                  <svg width="100%" x="0" y="0px">
                    <defs/>
                    <text text-anchor="middle" x="50%" y="16px">Y=2</text>
                  </svg>
                </svg>
                <line stroke="black" x1="50%" x2="50%" y1="19.2px" y2="48px"/>
              </svg>
              <line stroke="black" x1="50%" x2="75%" y1="19.2px" y2="48px"/>
            </svg>
            <line stroke="black" x1="50%" x2="66.6667%" y1="19.2px" y2="48px"/>
          </svg>
          <line stroke="black" x1="50%" x2="38.7097%" y1="19.2px" y2="48px"/>
          <svg width="22.5806%" x="77.4194%" y="48px">
            <defs/>
            <svg width="100%" x="0" y="0px">
              <defs/>
              <text text-anchor="middle" x="50%" y="16px">X_5=1</text>
            </svg>
            <svg width="100%" x="0%" y="48px">
              <defs/>
              <svg width="100%" x="0" y="0px">
                <defs/>
                <text text-anchor="middle" x="50%" y="16px">Y=2</text>
              </svg>
            </svg>
            <line stroke="black" x1="50%" x2="50%" y1="19.2px" y2="48px"/>
          </svg>
          <line stroke="black" x1="50%" x2="88.7097%" y1="19.2px" y2="48px"/>
        </svg>
        <line stroke="black" x1="50%" x2="40.7895%" y1="19.2px" y2="48px"/>
        <svg width="18.4211%" x="81.5789%" y="48px">
          <defs/>
          <svg width="100%" x="0" y="0px">
            <defs/>
            <text text-anchor="middle" x="50%" y="16px">X_1=1</text>
          </svg>
          <svg width="100%" x="0%" y="48px">
            <defs/>
            <svg width="100%" x="0" y="0px">
              <defs/>
              <text text-anchor="middle" x="50%" y="16px">Y=0</text>
            </svg>
          </svg>
          <line stroke="black" x1="50%" x2="50%" y1="19.2px" y2="48px"/>
        </svg>
        <line stroke="black" x1="50%" x2="90.7895%" y1="19.2px" y2="48px"/>
      </svg>
      <line stroke="black" x1="50%" x2="42.2222%" y1="19.2px" y2="48px"/>
      <svg width="15.5556%" x="84.4444%" y="48px">
        <defs/>
        <svg width="100%" x="0" y="0px">
          <defs/>
          <text text-anchor="middle" x="50%" y="16px">X_0=1</text>
        </svg>
        <svg width="100%" x="0%" y="48px">
          <defs/>
          <svg width="100%" x="0" y="0px">
            <defs/>
            <text text-anchor="middle" x="50%" y="16px">Y=0</text>
          </svg>
        </svg>
        <line stroke="black" x1="50%" x2="50%" y1="19.2px" y2="48px"/>
      </svg>
      <line stroke="black" x1="50%" x2="92.2222%" y1="19.2px" y2="48px"/>
    </svg>
    <line stroke="black" x1="50%" x2="78.5714%" y1="19.2px" y2="48px"/>
  </svg>
  <line stroke="black" x1="50%" x2="46.4602%" y1="0px" y2="32px"/>
  <svg width="7.07965%" x="92.9204%" y="32px">
    <defs/>
    <svg width="100%" x="0" y="0px">
      <defs/>
      <text text-anchor="middle" x="50%" y="16px">X_13=1</text>
    </svg>
    <svg width="100%" x="0%" y="48px">
      <defs/>
      <svg width="100%" x="0" y="0px">
        <defs/>
        <text text-anchor="middle" x="50%" y="16px">Y=2</text>
      </svg>
    </svg>
    <line stroke="black" x1="50%" x2="50%" y1="19.2px" y2="48px"/>
  </svg>
  <line stroke="black" x1="50%" x2="96.4602%" y1="0px" y2="32px"/>
</svg>
