<?xml version="1.0" encoding="utf-8" ?>
<svg xmlns="http://www.w3.org/2000/svg" xmlns:ev="http://www.w3.org/2001/xml-events" xmlns:xlink="http://www.w3.org/1999/xlink" baseProfile="full" height="248px" preserveAspectRatio="xMidYMid meet" style="font-family: times, serif; font-weight: normal; font-style: normal; font-size: 16px;" version="1.1" viewBox="0,0,512.0,248.0" width="512px">
  <defs/>
  <svg width="100%" x="0" y="0px">
    <defs/>
  </svg>
  <svg width="37.5%" x="0%" y="32px">
    <defs/>
    <svg width="100%" x="0" y="0px">
      <defs/>
      <text text-anchor="middle" x="50%" y="16px">X_0=0</text>
    </svg>
    <svg width="66.6667%" x="0%" y="48px">
      <defs/>
      <svg width="100%" x="0" y="0px">
        <defs/>
        <text text-anchor="middle" x="50%" y="16px">X_31=0</text>
      </svg>
      <svg width="50%" x="0%" y="48px">
        <defs/>
        <svg width="100%" x="0" y="0px">
          <defs/>
          <text text-anchor="middle" x="50%" y="16px">X_25=0</text>
        </svg>
        <svg width="100%" x="0%" y="48px">
          <defs/>
          <svg width="100%" x="0" y="0px">
            <defs/>
            <text text-anchor="middle" x="50%" y="16px">Y=2</text>
          </svg>
        </svg>
        <line stroke="black" x1="50%" x2="50%" y1="19.2px" y2="48px"/>
      </svg>
      <line stroke="black" x1="50%" x2="25%" y1="19.2px" y2="48px"/>
      <svg width="50%" x="50%" y="48px">
        <defs/>
        <svg width="100%" x="0" y="0px">
          <defs/>
          <text text-anchor="middle" x="50%" y="16px">X_25=1</text>
        </svg>
        <svg width="100%" x="0%" y="48px">
          <defs/>
          <svg width="100%" x="0" y="0px">
            <defs/>
            <text text-anchor="middle" x="50%" y="16px">Y=1</text>
          </svg>
        </svg>
        <line stroke="black" x1="50%" x2="50%" y1="19.2px" y2="48px"/>
      </svg>
      <line stroke="black" x1="50%" x2="75%" y1="19.2px" y2="48px"/>
    </svg>
    <line stroke="black" x1="50%" x2="33.3333%" y1="19.2px" y2="48px"/>
    <svg width="33.3333%" x="66.6667%" y="48px">
      <defs/>
      <svg width="100%" x="0" y="0px">
        <defs/>
        <text text-anchor="middle" x="50%" y="16px">X_31=1</text>
      </svg>
      <svg width="100%" x="0%" y="48px">
        <defs/>
        <svg width="100%" x="0" y="0px">
          <defs/>
          <text text-anchor="middle" x="50%" y="16px">Y=3</text>
        </svg>
      </svg>
      <line stroke="black" x1="50%" x2="50%" y1="19.2px" y2="48px"/>
    </svg>
    <line stroke="black" x1="50%" x2="83.3333%" y1="19.2px" y2="48px"/>
  </svg>
  <line stroke="black" x1="50%" x2="18.75%" y1="0px" y2="32px"/>
  <svg width="62.5%" x="37.5%" y="32px">
    <defs/>
    <svg width="100%" x="0" y="0px">
      <defs/>
      <text text-anchor="middle" x="50%" y="16px">X_0=1</text>
    </svg>
    <svg width="20%" x="0%" y="48px">
      <defs/>
      <svg width="100%" x="0" y="0px">
        <defs/>
        <text text-anchor="middle" x="50%" y="16px">X_53=0</text>
      </svg>
      <svg width="100%" x="0%" y="48px">
        <defs/>
        <svg width="100%" x="0" y="0px">
          <defs/>
          <text text-anchor="middle" x="50%" y="16px">Y=1</text>
        </svg>
      </svg>
      <line stroke="black" x1="50%" x2="50%" y1="19.2px" y2="48px"/>
    </svg>
    <line stroke="black" x1="50%" x2="10%" y1="19.2px" y2="48px"/>
    <svg width="80%" x="20%" y="48px">
      <defs/>
      <svg width="100%" x="0" y="0px">
        <defs/>
        <text text-anchor="middle" x="50%" y="16px">X_53=1</text>
      </svg>
      <svg width="50%" x="0%" y="48px">
        <defs/>
        <svg width="100%" x="0" y="0px">
          <defs/>
          <text text-anchor="middle" x="50%" y="16px">X_10=0</text>
        </svg>
        <svg width="50%" x="0%" y="48px">
          <defs/>
          <svg width="100%" x="0" y="0px">
            <defs/>
            <text text-anchor="middle" x="50%" y="16px">X_12=0</text>
          </svg>
          <svg width="100%" x="0%" y="48px">
            <defs/>
            <svg width="100%" x="0" y="0px">
              <defs/>
              <text text-anchor="middle" x="50%" y="16px">Y=2</text>
            </svg>
          </svg>
          <line stroke="black" x1="50%" x2="50%" y1="19.2px" y2="48px"/>
        </svg>
        <line stroke="black" x1="50%" x2="25%" y1="19.2px" y2="48px"/>
        <svg width="50%" x="50%" y="48px">
          <defs/>
          <svg width="100%" x="0" y="0px">
            <defs/>
            <text text-anchor="middle" x="50%" y="16px">X_12=1</text>
          </svg>
          <svg width="100%" x="0%" y="48px">
            <defs/>
            <svg width="100%" x="0" y="0px">
              <defs/>
              <text text-anchor="middle" x="50%" y="16px">Y=1</text>
            </svg>
          </svg>
          <line stroke="black" x1="50%" x2="50%" y1="19.2px" y2="48px"/>
        </svg>
        <line stroke="black" x1="50%" x2="75%" y1="19.2px" y2="48px"/>
      </svg>
      <line stroke="black" x1="50%" x2="25%" y1="19.2px" y2="48px"/>
      <svg width="50%" x="50%" y="48px">
        <defs/>
        <svg width="100%" x="0" y="0px">
          <defs/>
          <text text-anchor="middle" x="50%" y="16px">X_10=1</text>
        </svg>
        <svg width="50%" x="0%" y="48px">
          <defs/>
          <svg width="100%" x="0" y="0px">
            <defs/>
            <text text-anchor="middle" x="50%" y="16px">X_17=0</text>
          </svg>
          <svg width="100%" x="0%" y="48px">
            <defs/>
            <svg width="100%" x="0" y="0px">
              <defs/>
              <text text-anchor="middle" x="50%" y="16px">Y=1</text>
            </svg>
          </svg>
          <line stroke="black" x1="50%" x2="50%" y1="19.2px" y2="48px"/>
        </svg>
        <line stroke="black" x1="50%" x2="25%" y1="19.2px" y2="48px"/>
        <svg width="50%" x="50%" y="48px">
          <defs/>
          <svg width="100%" x="0" y="0px">
            <defs/>
            <text text-anchor="middle" x="50%" y="16px">X_17=1</text>
          </svg>
          <svg width="100%" x="0%" y="48px">
            <defs/>
            <svg width="100%" x="0" y="0px">
              <defs/>
              <text text-anchor="middle" x="50%" y="16px">Y=2</text>
            </svg>
          </svg>
          <line stroke="black" x1="50%" x2="50%" y1="19.2px" y2="48px"/>
        </svg>
        <line stroke="black" x1="50%" x2="75%" y1="19.2px" y2="48px"/>
      </svg>
      <line stroke="black" x1="50%" x2="75%" y1="19.2px" y2="48px"/>
    </svg>
    <line stroke="black" x1="50%" x2="60%" y1="19.2px" y2="48px"/>
  </svg>
  <line stroke="black" x1="50%" x2="68.75%" y1="0px" y2="32px"/>
</svg>
