<?xml version="1.0" encoding="utf-8" ?>
<svg xmlns="http://www.w3.org/2000/svg" xmlns:ev="http://www.w3.org/2001/xml-events" xmlns:xlink="http://www.w3.org/1999/xlink" baseProfile="full" height="344px" preserveAspectRatio="xMidYMid meet" style="font-family: times, serif; font-weight: normal; font-style: normal; font-size: 16px;" version="1.1" viewBox="0,0,1880.0,344.0" width="1880px">
  <defs/>
  <svg width="100%" x="0" y="0px">
    <defs/>
  </svg>
  <svg width="60.8511%" x="0%" y="32px">
    <defs/>
    <svg width="100%" x="0" y="0px">
      <defs/>
      <text text-anchor="middle" x="50%" y="16px">X_0=0</text>
    </svg>
    <svg width="54.5455%" x="0%" y="48px">
      <defs/>
      <svg width="100%" x="0" y="0px">
        <defs/>
        <text text-anchor="middle" x="50%" y="16px">X_15=0</text>
      </svg>
      <svg width="37.1795%" x="0%" y="48px">
        <defs/>
        <svg width="100%" x="0" y="0px">
          <defs/>
          <text text-anchor="middle" x="50%" y="16px">X_6=0</text>
        </svg>
        <svg width="72.4138%" x="0%" y="48px">
          <defs/>
          <svg width="100%" x="0" y="0px">
            <defs/>
            <text text-anchor="middle" x="50%" y="16px">X_11=0</text>
          </svg>
          <svg width="33.3333%" x="0%" y="48px">
            <defs/>
            <svg width="100%" x="0" y="0px">
              <defs/>
              <text text-anchor="middle" x="50%" y="16px">X_3=0</text>
            </svg>
            <svg width="100%" x="0%" y="48px">
              <defs/>
              <svg width="100%" x="0" y="0px">
                <defs/>
                <text text-anchor="middle" x="50%" y="16px">Y=0</text>
              </svg>
            </svg>
            <line stroke="black" x1="50%" x2="50%" y1="19.2px" y2="48px"/>
          </svg>
          <line stroke="black" x1="50%" x2="16.6667%" y1="19.2px" y2="48px"/>
          <svg width="66.6667%" x="33.3333%" y="48px">
            <defs/>
            <svg width="100%" x="0" y="0px">
              <defs/>
              <text text-anchor="middle" x="50%" y="16px">X_3=1</text>
            </svg>
            <svg width="50%" x="0%" y="48px">
              <defs/>
              <svg width="100%" x="0" y="0px">
                <defs/>
                <text text-anchor="middle" x="50%" y="16px">X_8=0</text>
              </svg>
              <svg width="100%" x="0%" y="48px">
                <defs/>
                <svg width="100%" x="0" y="0px">
                  <defs/>
                  <text text-anchor="middle" x="50%" y="16px">Y=0</text>
                </svg>
              </svg>
              <line stroke="black" x1="50%" x2="50%" y1="19.2px" y2="48px"/>
            </svg>
            <line stroke="black" x1="50%" x2="25%" y1="19.2px" y2="48px"/>
            <svg width="50%" x="50%" y="48px">
              <defs/>
              <svg width="100%" x="0" y="0px">
                <defs/>
                <text text-anchor="middle" x="50%" y="16px">X_8=1</text>
              </svg>
              <svg width="100%" x="0%" y="48px">
                <defs/>
                <svg width="100%" x="0" y="0px">
                  <defs/>
                  <text text-anchor="middle" x="50%" y="16px">Y=1</text>
                </svg>
              </svg>
              <line stroke="black" x1="50%" x2="50%" y1="19.2px" y2="48px"/>
            </svg>
            <line stroke="black" x1="50%" x2="75%" y1="19.2px" y2="48px"/>
          </svg>
          <line stroke="black" x1="50%" x2="66.6667%" y1="19.2px" y2="48px"/>
        </svg>
        <line stroke="black" x1="50%" x2="36.2069%" y1="19.2px" y2="48px"/>
        <svg width="27.5862%" x="72.4138%" y="48px">
          <defs/>
          <svg width="100%" x="0" y="0px">
            <defs/>
            <text text-anchor="middle" x="50%" y="16px">X_11=1</text>
          </svg>
          <svg width="100%" x="0%" y="48px">
            <defs/>
            <svg width="100%" x="0" y="0px">
              <defs/>
              <text text-anchor="middle" x="50%" y="16px">Y=1</text>
            </svg>
          </svg>
          <line stroke="black" x1="50%" x2="50%" y1="19.2px" y2="48px"/>
        </svg>
        <line stroke="black" x1="50%" x2="86.2069%" y1="19.2px" y2="48px"/>
      </svg>
      <line stroke="black" x1="50%" x2="18.5897%" y1="19.2px" y2="48px"/>
      <svg width="62.8205%" x="37.1795%" y="48px">
        <defs/>
        <svg width="100%" x="0" y="0px">
          <defs/>
          <text text-anchor="middle" x="50%" y="16px">X_6=1</text>
        </svg>
        <svg width="57.1429%" x="0%" y="48px">
          <defs/>
          <svg width="100%" x="0" y="0px">
            <defs/>
            <text text-anchor="middle" x="50%" y="16px">X_11=0</text>
          </svg>
          <svg width="50%" x="0%" y="48px">
            <defs/>
            <svg width="100%" x="0" y="0px">
              <defs/>
              <text text-anchor="middle" x="50%" y="16px">X_8=0</text>
            </svg>
            <svg width="50%" x="0%" y="48px">
              <defs/>
              <svg width="100%" x="0" y="0px">
                <defs/>
                <text text-anchor="middle" x="50%" y="16px">X_3=0</text>
              </svg>
              <svg width="100%" x="0%" y="48px">
                <defs/>
                <svg width="100%" x="0" y="0px">
                  <defs/>
                  <text text-anchor="middle" x="50%" y="16px">Y=0</text>
                </svg>
              </svg>
              <line stroke="black" x1="50%" x2="50%" y1="19.2px" y2="48px"/>
            </svg>
            <line stroke="black" x1="50%" x2="25%" y1="19.2px" y2="48px"/>
            <svg width="50%" x="50%" y="48px">
              <defs/>
              <svg width="100%" x="0" y="0px">
                <defs/>
                <text text-anchor="middle" x="50%" y="16px">X_3=1</text>
              </svg>
              <svg width="100%" x="0%" y="48px">
                <defs/>
                <svg width="100%" x="0" y="0px">
                  <defs/>
                  <text text-anchor="middle" x="50%" y="16px">Y=1</text>
                </svg>
              </svg>
              <line stroke="black" x1="50%" x2="50%" y1="19.2px" y2="48px"/>
            </svg>
            <line stroke="black" x1="50%" x2="75%" y1="19.2px" y2="48px"/>
          </svg>
          <line stroke="black" x1="50%" x2="25%" y1="19.2px" y2="48px"/>
          <svg width="50%" x="50%" y="48px">
            <defs/>
            <svg width="100%" x="0" y="0px">
              <defs/>
              <text text-anchor="middle" x="50%" y="16px">X_8=1</text>
            </svg>
            <svg width="50%" x="0%" y="48px">
              <defs/>
              <svg width="100%" x="0" y="0px">
                <defs/>
                <text text-anchor="middle" x="50%" y="16px">X_3=0</text>
              </svg>
              <svg width="100%" x="0%" y="48px">
                <defs/>
                <svg width="100%" x="0" y="0px">
                  <defs/>
                  <text text-anchor="middle" x="50%" y="16px">Y=1</text>
                </svg>
              </svg>
              <line stroke="black" x1="50%" x2="50%" y1="19.2px" y2="48px"/>
            </svg>
            <line stroke="black" x1="50%" x2="25%" y1="19.2px" y2="48px"/>
            <svg width="50%" x="50%" y="48px">
              <defs/>
              <svg width="100%" x="0" y="0px">
                <defs/>
                <text text-anchor="middle" x="50%" y="16px">X_3=1</text>
              </svg>
              <svg width="100%" x="0%" y="48px">
                <defs/>
                <svg width="100%" x="0" y="0px">
                  <defs/>
                  <text text-anchor="middle" x="50%" y="16px">Y=0</text>
                </svg>
              </svg>
              <line stroke="black" x1="50%" x2="50%" y1="19.2px" y2="48px"/>
            </svg>
            <line stroke="black" x1="50%" x2="75%" y1="19.2px" y2="48px"/>
          </svg>
          <line stroke="black" x1="50%" x2="75%" y1="19.2px" y2="48px"/>
        </svg>
        <line stroke="black" x1="50%" x2="28.5714%" y1="19.2px" y2="48px"/>
        <svg width="42.8571%" x="57.1429%" y="48px">
          <defs/>
          <svg width="100%" x="0" y="0px">
            <defs/>
            <text text-anchor="middle" x="50%" y="16px">X_11=1</text>
          </svg>
          <svg width="66.6667%" x="0%" y="48px">
            <defs/>
            <svg width="100%" x="0" y="0px">
              <defs/>
              <text text-anchor="middle" x="50%" y="16px">X_3=0</text>
            </svg>
            <svg width="50%" x="0%" y="48px">
              <defs/>
              <svg width="100%" x="0" y="0px">
                <defs/>
                <text text-anchor="middle" x="50%" y="16px">X_8=0</text>
              </svg>
              <svg width="100%" x="0%" y="48px">
                <defs/>
                <svg width="100%" x="0" y="0px">
                  <defs/>
                  <text text-anchor="middle" x="50%" y="16px">Y=1</text>
                </svg>
              </svg>
              <line stroke="black" x1="50%" x2="50%" y1="19.2px" y2="48px"/>
            </svg>
            <line stroke="black" x1="50%" x2="25%" y1="19.2px" y2="48px"/>
            <svg width="50%" x="50%" y="48px">
              <defs/>
              <svg width="100%" x="0" y="0px">
                <defs/>
                <text text-anchor="middle" x="50%" y="16px">X_8=1</text>
              </svg>
              <svg width="100%" x="0%" y="48px">
                <defs/>
                <svg width="100%" x="0" y="0px">
                  <defs/>
                  <text text-anchor="middle" x="50%" y="16px">Y=0</text>
                </svg>
              </svg>
              <line stroke="black" x1="50%" x2="50%" y1="19.2px" y2="48px"/>
            </svg>
            <line stroke="black" x1="50%" x2="75%" y1="19.2px" y2="48px"/>
          </svg>
          <line stroke="black" x1="50%" x2="33.3333%" y1="19.2px" y2="48px"/>
          <svg width="33.3333%" x="66.6667%" y="48px">
            <defs/>
            <svg width="100%" x="0" y="0px">
              <defs/>
              <text text-anchor="middle" x="50%" y="16px">X_3=1</text>
            </svg>
            <svg width="100%" x="0%" y="48px">
              <defs/>
              <svg width="100%" x="0" y="0px">
                <defs/>
                <text text-anchor="middle" x="50%" y="16px">Y=0</text>
              </svg>
            </svg>
            <line stroke="black" x1="50%" x2="50%" y1="19.2px" y2="48px"/>
          </svg>
          <line stroke="black" x1="50%" x2="83.3333%" y1="19.2px" y2="48px"/>
        </svg>
        <line stroke="black" x1="50%" x2="78.5714%" y1="19.2px" y2="48px"/>
      </svg>
      <line stroke="black" x1="50%" x2="68.5897%" y1="19.2px" y2="48px"/>
    </svg>
    <line stroke="black" x1="50%" x2="27.2727%" y1="19.2px" y2="48px"/>
    <svg width="45.4545%" x="54.5455%" y="48px">
      <defs/>
      <svg width="100%" x="0" y="0px">
        <defs/>
        <text text-anchor="middle" x="50%" y="16px">X_15=1</text>
      </svg>
      <svg width="75.3846%" x="0%" y="48px">
        <defs/>
        <svg width="100%" x="0" y="0px">
          <defs/>
          <text text-anchor="middle" x="50%" y="16px">X_3=0</text>
        </svg>
        <svg width="57.1429%" x="0%" y="48px">
          <defs/>
          <svg width="100%" x="0" y="0px">
            <defs/>
            <text text-anchor="middle" x="50%" y="16px">X_11=0</text>
          </svg>
          <svg width="50%" x="0%" y="48px">
            <defs/>
            <svg width="100%" x="0" y="0px">
              <defs/>
              <text text-anchor="middle" x="50%" y="16px">X_6=0</text>
            </svg>
            <svg width="50%" x="0%" y="48px">
              <defs/>
              <svg width="100%" x="0" y="0px">
                <defs/>
                <text text-anchor="middle" x="50%" y="16px">X_8=0</text>
              </svg>
              <svg width="100%" x="0%" y="48px">
                <defs/>
                <svg width="100%" x="0" y="0px">
                  <defs/>
                  <text text-anchor="middle" x="50%" y="16px">Y=0</text>
                </svg>
              </svg>
              <line stroke="black" x1="50%" x2="50%" y1="19.2px" y2="48px"/>
            </svg>
            <line stroke="black" x1="50%" x2="25%" y1="19.2px" y2="48px"/>
            <svg width="50%" x="50%" y="48px">
              <defs/>
              <svg width="100%" x="0" y="0px">
                <defs/>
                <text text-anchor="middle" x="50%" y="16px">X_8=1</text>
              </svg>
              <svg width="100%" x="0%" y="48px">
                <defs/>
                <svg width="100%" x="0" y="0px">
                  <defs/>
                  <text text-anchor="middle" x="50%" y="16px">Y=1</text>
                </svg>
              </svg>
              <line stroke="black" x1="50%" x2="50%" y1="19.2px" y2="48px"/>
            </svg>
            <line stroke="black" x1="50%" x2="75%" y1="19.2px" y2="48px"/>
          </svg>
          <line stroke="black" x1="50%" x2="25%" y1="19.2px" y2="48px"/>
          <svg width="50%" x="50%" y="48px">
            <defs/>
            <svg width="100%" x="0" y="0px">
              <defs/>
              <text text-anchor="middle" x="50%" y="16px">X_6=1</text>
            </svg>
            <svg width="50%" x="0%" y="48px">
              <defs/>
              <svg width="100%" x="0" y="0px">
                <defs/>
                <text text-anchor="middle" x="50%" y="16px">X_8=0</text>
              </svg>
              <svg width="100%" x="0%" y="48px">
                <defs/>
                <svg width="100%" x="0" y="0px">
                  <defs/>
                  <text text-anchor="middle" x="50%" y="16px">Y=1</text>
                </svg>
              </svg>
              <line stroke="black" x1="50%" x2="50%" y1="19.2px" y2="48px"/>
            </svg>
            <line stroke="black" x1="50%" x2="25%" y1="19.2px" y2="48px"/>
            <svg width="50%" x="50%" y="48px">
              <defs/>
              <svg width="100%" x="0" y="0px">
                <defs/>
                <text text-anchor="middle" x="50%" y="16px">X_8=1</text>
              </svg>
              <svg width="100%" x="0%" y="48px">
                <defs/>
                <svg width="100%" x="0" y="0px">
                  <defs/>
                  <text text-anchor="middle" x="50%" y="16px">Y=0</text>
                </svg>
              </svg>
              <line stroke="black" x1="50%" x2="50%" y1="19.2px" y2="48px"/>
            </svg>
            <line stroke="black" x1="50%" x2="75%" y1="19.2px" y2="48px"/>
          </svg>
          <line stroke="black" x1="50%" x2="75%" y1="19.2px" y2="48px"/>
        </svg>
        <line stroke="black" x1="50%" x2="28.5714%" y1="19.2px" y2="48px"/>
        <svg width="42.8571%" x="57.1429%" y="48px">
          <defs/>
          <svg width="100%" x="0" y="0px">
            <defs/>
            <text text-anchor="middle" x="50%" y="16px">X_11=1</text>
          </svg>
          <svg width="66.6667%" x="0%" y="48px">
            <defs/>
            <svg width="100%" x="0" y="0px">
              <defs/>
              <text text-anchor="middle" x="50%" y="16px">X_6=0</text>
            </svg>
            <svg width="50%" x="0%" y="48px">
              <defs/>
              <svg width="100%" x="0" y="0px">
                <defs/>
                <text text-anchor="middle" x="50%" y="16px">X_8=0</text>
              </svg>
              <svg width="100%" x="0%" y="48px">
                <defs/>
                <svg width="100%" x="0" y="0px">
                  <defs/>
                  <text text-anchor="middle" x="50%" y="16px">Y=1</text>
                </svg>
              </svg>
              <line stroke="black" x1="50%" x2="50%" y1="19.2px" y2="48px"/>
            </svg>
            <line stroke="black" x1="50%" x2="25%" y1="19.2px" y2="48px"/>
            <svg width="50%" x="50%" y="48px">
              <defs/>
              <svg width="100%" x="0" y="0px">
                <defs/>
                <text text-anchor="middle" x="50%" y="16px">X_8=1</text>
              </svg>
              <svg width="100%" x="0%" y="48px">
                <defs/>
                <svg width="100%" x="0" y="0px">
                  <defs/>
                  <text text-anchor="middle" x="50%" y="16px">Y=0</text>
                </svg>
              </svg>
              <line stroke="black" x1="50%" x2="50%" y1="19.2px" y2="48px"/>
            </svg>
            <line stroke="black" x1="50%" x2="75%" y1="19.2px" y2="48px"/>
          </svg>
          <line stroke="black" x1="50%" x2="33.3333%" y1="19.2px" y2="48px"/>
          <svg width="33.3333%" x="66.6667%" y="48px">
            <defs/>
            <svg width="100%" x="0" y="0px">
              <defs/>
              <text text-anchor="middle" x="50%" y="16px">X_6=1</text>
            </svg>
            <svg width="100%" x="0%" y="48px">
              <defs/>
              <svg width="100%" x="0" y="0px">
                <defs/>
                <text text-anchor="middle" x="50%" y="16px">Y=0</text>
              </svg>
            </svg>
            <line stroke="black" x1="50%" x2="50%" y1="19.2px" y2="48px"/>
          </svg>
          <line stroke="black" x1="50%" x2="83.3333%" y1="19.2px" y2="48px"/>
        </svg>
        <line stroke="black" x1="50%" x2="78.5714%" y1="19.2px" y2="48px"/>
      </svg>
      <line stroke="black" x1="50%" x2="37.6923%" y1="19.2px" y2="48px"/>
      <svg width="24.6154%" x="75.3846%" y="48px">
        <defs/>
        <svg width="100%" x="0" y="0px">
          <defs/>
          <text text-anchor="middle" x="50%" y="16px">X_3=1</text>
        </svg>
        <svg width="50%" x="0%" y="48px">
          <defs/>
          <svg width="100%" x="0" y="0px">
            <defs/>
            <text text-anchor="middle" x="50%" y="16px">X_12=0</text>
          </svg>
          <svg width="100%" x="0%" y="48px">
            <defs/>
            <svg width="100%" x="0" y="0px">
              <defs/>
              <text text-anchor="middle" x="50%" y="16px">Y=0</text>
            </svg>
          </svg>
          <line stroke="black" x1="50%" x2="50%" y1="19.2px" y2="48px"/>
        </svg>
        <line stroke="black" x1="50%" x2="25%" y1="19.2px" y2="48px"/>
        <svg width="50%" x="50%" y="48px">
          <defs/>
          <svg width="100%" x="0" y="0px">
            <defs/>
            <text text-anchor="middle" x="50%" y="16px">X_12=1</text>
          </svg>
          <svg width="100%" x="0%" y="48px">
            <defs/>
            <svg width="100%" x="0" y="0px">
              <defs/>
              <text text-anchor="middle" x="50%" y="16px">Y=1</text>
            </svg>
          </svg>
          <line stroke="black" x1="50%" x2="50%" y1="19.2px" y2="48px"/>
        </svg>
        <line stroke="black" x1="50%" x2="75%" y1="19.2px" y2="48px"/>
      </svg>
      <line stroke="black" x1="50%" x2="87.6923%" y1="19.2px" y2="48px"/>
    </svg>
    <line stroke="black" x1="50%" x2="77.2727%" y1="19.2px" y2="48px"/>
  </svg>
  <line stroke="black" x1="50%" x2="30.4255%" y1="0px" y2="32px"/>
  <svg width="39.1489%" x="60.8511%" y="32px">
    <defs/>
    <svg width="100%" x="0" y="0px">
      <defs/>
      <text text-anchor="middle" x="50%" y="16px">X_0=1</text>
    </svg>
    <svg width="39.1304%" x="0%" y="48px">
      <defs/>
      <svg width="100%" x="0" y="0px">
        <defs/>
        <text text-anchor="middle" x="50%" y="16px">X_16=0</text>
      </svg>
      <svg width="77.7778%" x="0%" y="48px">
        <defs/>
        <svg width="100%" x="0" y="0px">
          <defs/>
          <text text-anchor="middle" x="50%" y="16px">X_11=0</text>
        </svg>
        <svg width="75%" x="0%" y="48px">
          <defs/>
          <svg width="100%" x="0" y="0px">
            <defs/>
            <text text-anchor="middle" x="50%" y="16px">X_6=0</text>
          </svg>
          <svg width="66.6667%" x="0%" y="48px">
            <defs/>
            <svg width="100%" x="0" y="0px">
              <defs/>
              <text text-anchor="middle" x="50%" y="16px">X_8=0</text>
            </svg>
            <svg width="50%" x="0%" y="48px">
              <defs/>
              <svg width="100%" x="0" y="0px">
                <defs/>
                <text text-anchor="middle" x="50%" y="16px">X_3=0</text>
              </svg>
              <svg width="100%" x="0%" y="48px">
                <defs/>
                <svg width="100%" x="0" y="0px">
                  <defs/>
                  <text text-anchor="middle" x="50%" y="16px">Y=1</text>
                </svg>
              </svg>
              <line stroke="black" x1="50%" x2="50%" y1="19.2px" y2="48px"/>
            </svg>
            <line stroke="black" x1="50%" x2="25%" y1="19.2px" y2="48px"/>
            <svg width="50%" x="50%" y="48px">
              <defs/>
              <svg width="100%" x="0" y="0px">
                <defs/>
                <text text-anchor="middle" x="50%" y="16px">X_3=1</text>
              </svg>
              <svg width="100%" x="0%" y="48px">
                <defs/>
                <svg width="100%" x="0" y="0px">
                  <defs/>
                  <text text-anchor="middle" x="50%" y="16px">Y=0</text>
                </svg>
              </svg>
              <line stroke="black" x1="50%" x2="50%" y1="19.2px" y2="48px"/>
            </svg>
            <line stroke="black" x1="50%" x2="75%" y1="19.2px" y2="48px"/>
          </svg>
          <line stroke="black" x1="50%" x2="33.3333%" y1="19.2px" y2="48px"/>
          <svg width="33.3333%" x="66.6667%" y="48px">
            <defs/>
            <svg width="100%" x="0" y="0px">
              <defs/>
              <text text-anchor="middle" x="50%" y="16px">X_8=1</text>
            </svg>
            <svg width="100%" x="0%" y="48px">
              <defs/>
              <svg width="100%" x="0" y="0px">
                <defs/>
                <text text-anchor="middle" x="50%" y="16px">Y=0</text>
              </svg>
            </svg>
            <line stroke="black" x1="50%" x2="50%" y1="19.2px" y2="48px"/>
          </svg>
          <line stroke="black" x1="50%" x2="83.3333%" y1="19.2px" y2="48px"/>
        </svg>
        <line stroke="black" x1="50%" x2="37.5%" y1="19.2px" y2="48px"/>
        <svg width="25%" x="75%" y="48px">
          <defs/>
          <svg width="100%" x="0" y="0px">
            <defs/>
            <text text-anchor="middle" x="50%" y="16px">X_6=1</text>
          </svg>
          <svg width="100%" x="0%" y="48px">
            <defs/>
            <svg width="100%" x="0" y="0px">
              <defs/>
              <text text-anchor="middle" x="50%" y="16px">Y=0</text>
            </svg>
          </svg>
          <line stroke="black" x1="50%" x2="50%" y1="19.2px" y2="48px"/>
        </svg>
        <line stroke="black" x1="50%" x2="87.5%" y1="19.2px" y2="48px"/>
      </svg>
      <line stroke="black" x1="50%" x2="38.8889%" y1="19.2px" y2="48px"/>
      <svg width="22.2222%" x="77.7778%" y="48px">
        <defs/>
        <svg width="100%" x="0" y="0px">
          <defs/>
          <text text-anchor="middle" x="50%" y="16px">X_11=1</text>
        </svg>
        <svg width="100%" x="0%" y="48px">
          <defs/>
          <svg width="100%" x="0" y="0px">
            <defs/>
            <text text-anchor="middle" x="50%" y="16px">Y=0</text>
          </svg>
        </svg>
        <line stroke="black" x1="50%" x2="50%" y1="19.2px" y2="48px"/>
      </svg>
      <line stroke="black" x1="50%" x2="88.8889%" y1="19.2px" y2="48px"/>
    </svg>
    <line stroke="black" x1="50%" x2="19.5652%" y1="19.2px" y2="48px"/>
    <svg width="60.8696%" x="39.1304%" y="48px">
      <defs/>
      <svg width="100%" x="0" y="0px">
        <defs/>
        <text text-anchor="middle" x="50%" y="16px">X_16=1</text>
      </svg>
      <svg width="62.5%" x="0%" y="48px">
        <defs/>
        <svg width="100%" x="0" y="0px">
          <defs/>
          <text text-anchor="middle" x="50%" y="16px">X_11=0</text>
        </svg>
        <svg width="60%" x="0%" y="48px">
          <defs/>
          <svg width="100%" x="0" y="0px">
            <defs/>
            <text text-anchor="middle" x="50%" y="16px">X_8=0</text>
          </svg>
          <svg width="66.6667%" x="0%" y="48px">
            <defs/>
            <svg width="100%" x="0" y="0px">
              <defs/>
              <text text-anchor="middle" x="50%" y="16px">X_6=0</text>
            </svg>
            <svg width="50%" x="0%" y="48px">
              <defs/>
              <svg width="100%" x="0" y="0px">
                <defs/>
                <text text-anchor="middle" x="50%" y="16px">X_3=0</text>
              </svg>
              <svg width="100%" x="0%" y="48px">
                <defs/>
                <svg width="100%" x="0" y="0px">
                  <defs/>
                  <text text-anchor="middle" x="50%" y="16px">Y=0</text>
                </svg>
              </svg>
              <line stroke="black" x1="50%" x2="50%" y1="19.2px" y2="48px"/>
            </svg>
            <line stroke="black" x1="50%" x2="25%" y1="19.2px" y2="48px"/>
            <svg width="50%" x="50%" y="48px">
              <defs/>
              <svg width="100%" x="0" y="0px">
                <defs/>
                <text text-anchor="middle" x="50%" y="16px">X_3=1</text>
              </svg>
              <svg width="100%" x="0%" y="48px">
                <defs/>
                <svg width="100%" x="0" y="0px">
                  <defs/>
                  <text text-anchor="middle" x="50%" y="16px">Y=1</text>
                </svg>
              </svg>
              <line stroke="black" x1="50%" x2="50%" y1="19.2px" y2="48px"/>
            </svg>
            <line stroke="black" x1="50%" x2="75%" y1="19.2px" y2="48px"/>
          </svg>
          <line stroke="black" x1="50%" x2="33.3333%" y1="19.2px" y2="48px"/>
          <svg width="33.3333%" x="66.6667%" y="48px">
            <defs/>
            <svg width="100%" x="0" y="0px">
              <defs/>
              <text text-anchor="middle" x="50%" y="16px">X_6=1</text>
            </svg>
            <svg width="100%" x="0%" y="48px">
              <defs/>
              <svg width="100%" x="0" y="0px">
                <defs/>
                <text text-anchor="middle" x="50%" y="16px">Y=1</text>
              </svg>
            </svg>
            <line stroke="black" x1="50%" x2="50%" y1="19.2px" y2="48px"/>
          </svg>
          <line stroke="black" x1="50%" x2="83.3333%" y1="19.2px" y2="48px"/>
        </svg>
        <line stroke="black" x1="50%" x2="30%" y1="19.2px" y2="48px"/>
        <svg width="40%" x="60%" y="48px">
          <defs/>
          <svg width="100%" x="0" y="0px">
            <defs/>
            <text text-anchor="middle" x="50%" y="16px">X_8=1</text>
          </svg>
          <svg width="50%" x="0%" y="48px">
            <defs/>
            <svg width="100%" x="0" y="0px">
              <defs/>
              <text text-anchor="middle" x="50%" y="16px">X_6=0</text>
            </svg>
            <svg width="100%" x="0%" y="48px">
              <defs/>
              <svg width="100%" x="0" y="0px">
                <defs/>
                <text text-anchor="middle" x="50%" y="16px">Y=1</text>
              </svg>
            </svg>
            <line stroke="black" x1="50%" x2="50%" y1="19.2px" y2="48px"/>
          </svg>
          <line stroke="black" x1="50%" x2="25%" y1="19.2px" y2="48px"/>
          <svg width="50%" x="50%" y="48px">
            <defs/>
            <svg width="100%" x="0" y="0px">
              <defs/>
              <text text-anchor="middle" x="50%" y="16px">X_6=1</text>
            </svg>
            <svg width="100%" x="0%" y="48px">
              <defs/>
              <svg width="100%" x="0" y="0px">
                <defs/>
                <text text-anchor="middle" x="50%" y="16px">Y=0</text>
              </svg>
            </svg>
            <line stroke="black" x1="50%" x2="50%" y1="19.2px" y2="48px"/>
          </svg>
          <line stroke="black" x1="50%" x2="75%" y1="19.2px" y2="48px"/>
        </svg>
        <line stroke="black" x1="50%" x2="80%" y1="19.2px" y2="48px"/>
      </svg>
      <line stroke="black" x1="50%" x2="31.25%" y1="19.2px" y2="48px"/>
      <svg width="37.5%" x="62.5%" y="48px">
        <defs/>
        <svg width="100%" x="0" y="0px">
          <defs/>
          <text text-anchor="middle" x="50%" y="16px">X_11=1</text>
        </svg>
        <svg width="66.6667%" x="0%" y="48px">
          <defs/>
          <svg width="100%" x="0" y="0px">
            <defs/>
            <text text-anchor="middle" x="50%" y="16px">X_3=0</text>
          </svg>
          <svg width="50%" x="0%" y="48px">
            <defs/>
            <svg width="100%" x="0" y="0px">
              <defs/>
              <text text-anchor="middle" x="50%" y="16px">X_6=0</text>
            </svg>
            <svg width="100%" x="0%" y="48px">
              <defs/>
              <svg width="100%" x="0" y="0px">
                <defs/>
                <text text-anchor="middle" x="50%" y="16px">Y=1</text>
              </svg>
            </svg>
            <line stroke="black" x1="50%" x2="50%" y1="19.2px" y2="48px"/>
          </svg>
          <line stroke="black" x1="50%" x2="25%" y1="19.2px" y2="48px"/>
          <svg width="50%" x="50%" y="48px">
            <defs/>
            <svg width="100%" x="0" y="0px">
              <defs/>
              <text text-anchor="middle" x="50%" y="16px">X_6=1</text>
            </svg>
            <svg width="100%" x="0%" y="48px">
              <defs/>
              <svg width="100%" x="0" y="0px">
                <defs/>
                <text text-anchor="middle" x="50%" y="16px">Y=0</text>
              </svg>
            </svg>
            <line stroke="black" x1="50%" x2="50%" y1="19.2px" y2="48px"/>
          </svg>
          <line stroke="black" x1="50%" x2="75%" y1="19.2px" y2="48px"/>
        </svg>
        <line stroke="black" x1="50%" x2="33.3333%" y1="19.2px" y2="48px"/>
        <svg width="33.3333%" x="66.6667%" y="48px">
          <defs/>
          <svg width="100%" x="0" y="0px">
            <defs/>
            <text text-anchor="middle" x="50%" y="16px">X_3=1</text>
          </svg>
          <svg width="100%" x="0%" y="48px">
            <defs/>
            <svg width="100%" x="0" y="0px">
              <defs/>
              <text text-anchor="middle" x="50%" y="16px">Y=0</text>
            </svg>
          </svg>
          <line stroke="black" x1="50%" x2="50%" y1="19.2px" y2="48px"/>
        </svg>
        <line stroke="black" x1="50%" x2="83.3333%" y1="19.2px" y2="48px"/>
      </svg>
      <line stroke="black" x1="50%" x2="81.25%" y1="19.2px" y2="48px"/>
    </svg>
    <line stroke="black" x1="50%" x2="69.5652%" y1="19.2px" y2="48px"/>
  </svg>
  <line stroke="black" x1="50%" x2="80.4255%" y1="0px" y2="32px"/>
</svg>
