<?xml version="1.0" encoding="utf-8" ?>
<svg xmlns="http://www.w3.org/2000/svg" xmlns:ev="http://www.w3.org/2001/xml-events" xmlns:xlink="http://www.w3.org/1999/xlink" baseProfile="full" height="440px" preserveAspectRatio="xMidYMid meet" style="font-family: times, serif; font-weight: normal; font-style: normal; font-size: 16px;" version="1.1" viewBox="0,0,920.0,440.0" width="920px">
  <defs/>
  <svg width="100%" x="0" y="0px">
    <defs/>
  </svg>
  <svg width="75.6522%" x="0%" y="32px">
    <defs/>
    <svg width="100%" x="0" y="0px">
      <defs/>
      <text text-anchor="middle" x="50%" y="16px">X_5=0</text>
    </svg>
    <svg width="75.8621%" x="0%" y="48px">
      <defs/>
      <svg width="100%" x="0" y="0px">
        <defs/>
        <text text-anchor="middle" x="50%" y="16px">X_12=0</text>
      </svg>
      <svg width="87.8788%" x="0%" y="48px">
        <defs/>
        <svg width="100%" x="0" y="0px">
          <defs/>
          <text text-anchor="middle" x="50%" y="16px">X_14=0</text>
        </svg>
        <svg width="86.2069%" x="0%" y="48px">
          <defs/>
          <svg width="100%" x="0" y="0px">
            <defs/>
            <text text-anchor="middle" x="50%" y="16px">X_11=0</text>
          </svg>
          <svg width="14%" x="0%" y="48px">
            <defs/>
            <svg width="100%" x="0" y="0px">
              <defs/>
              <text text-anchor="middle" x="50%" y="16px">X_6=0</text>
            </svg>
            <svg width="100%" x="0%" y="48px">
              <defs/>
              <svg width="100%" x="0" y="0px">
                <defs/>
                <text text-anchor="middle" x="50%" y="16px">Y=1</text>
              </svg>
            </svg>
            <line stroke="black" x1="50%" x2="50%" y1="19.2px" y2="48px"/>
          </svg>
          <line stroke="black" x1="50%" x2="7%" y1="19.2px" y2="48px"/>
          <svg width="86%" x="14%" y="48px">
            <defs/>
            <svg width="100%" x="0" y="0px">
              <defs/>
              <text text-anchor="middle" x="50%" y="16px">X_6=1</text>
            </svg>
            <svg width="51.1628%" x="0%" y="48px">
              <defs/>
              <svg width="100%" x="0" y="0px">
                <defs/>
                <text text-anchor="middle" x="50%" y="16px">X_0=0</text>
              </svg>
              <svg width="36.3636%" x="0%" y="48px">
                <defs/>
                <svg width="100%" x="0" y="0px">
                  <defs/>
                  <text text-anchor="middle" x="50%" y="16px">X_10=0</text>
                </svg>
                <svg width="100%" x="0%" y="48px">
                  <defs/>
                  <svg width="100%" x="0" y="0px">
                    <defs/>
                    <text text-anchor="middle" x="50%" y="16px">Y=1</text>
                  </svg>
                </svg>
                <line stroke="black" x1="50%" x2="50%" y1="19.2px" y2="48px"/>
              </svg>
              <line stroke="black" x1="50%" x2="18.1818%" y1="19.2px" y2="48px"/>
              <svg width="63.6364%" x="36.3636%" y="48px">
                <defs/>
                <svg width="100%" x="0" y="0px">
                  <defs/>
                  <text text-anchor="middle" x="50%" y="16px">X_10=1</text>
                </svg>
                <svg width="50%" x="0%" y="48px">
                  <defs/>
                  <svg width="100%" x="0" y="0px">
                    <defs/>
                    <text text-anchor="middle" x="50%" y="16px">X_3=0</text>
                  </svg>
                  <svg width="100%" x="0%" y="48px">
                    <defs/>
                    <svg width="100%" x="0" y="0px">
                      <defs/>
                      <text text-anchor="middle" x="50%" y="16px">Y=0</text>
                    </svg>
                  </svg>
                  <line stroke="black" x1="50%" x2="50%" y1="19.2px" y2="48px"/>
                </svg>
                <line stroke="black" x1="50%" x2="25%" y1="19.2px" y2="48px"/>
                <svg width="50%" x="50%" y="48px">
                  <defs/>
                  <svg width="100%" x="0" y="0px">
                    <defs/>
                    <text text-anchor="middle" x="50%" y="16px">X_3=1</text>
                  </svg>
                  <svg width="100%" x="0%" y="48px">
                    <defs/>
                    <svg width="100%" x="0" y="0px">
                      <defs/>
                      <text text-anchor="middle" x="50%" y="16px">Y=1</text>
                    </svg>
                  </svg>
                  <line stroke="black" x1="50%" x2="50%" y1="19.2px" y2="48px"/>
                </svg>
                <line stroke="black" x1="50%" x2="75%" y1="19.2px" y2="48px"/>
              </svg>
              <line stroke="black" x1="50%" x2="68.1818%" y1="19.2px" y2="48px"/>
            </svg>
            <line stroke="black" x1="50%" x2="25.5814%" y1="19.2px" y2="48px"/>
            <svg width="48.8372%" x="51.1628%" y="48px">
              <defs/>
              <svg width="100%" x="0" y="0px">
                <defs/>
                <text text-anchor="middle" x="50%" y="16px">X_0=1</text>
              </svg>
              <svg width="66.6667%" x="0%" y="48px">
                <defs/>
                <svg width="100%" x="0" y="0px">
                  <defs/>
                  <text text-anchor="middle" x="50%" y="16px">X_3=0</text>
                </svg>
                <svg width="50%" x="0%" y="48px">
                  <defs/>
                  <svg width="100%" x="0" y="0px">
                    <defs/>
                    <text text-anchor="middle" x="50%" y="16px">X_9=0</text>
                  </svg>
                  <svg width="100%" x="0%" y="48px">
                    <defs/>
                    <svg width="100%" x="0" y="0px">
                      <defs/>
                      <text text-anchor="middle" x="50%" y="16px">Y=1</text>
                    </svg>
                  </svg>
                  <line stroke="black" x1="50%" x2="50%" y1="19.2px" y2="48px"/>
                </svg>
                <line stroke="black" x1="50%" x2="25%" y1="19.2px" y2="48px"/>
                <svg width="50%" x="50%" y="48px">
                  <defs/>
                  <svg width="100%" x="0" y="0px">
                    <defs/>
                    <text text-anchor="middle" x="50%" y="16px">X_9=1</text>
                  </svg>
                  <svg width="100%" x="0%" y="48px">
                    <defs/>
                    <svg width="100%" x="0" y="0px">
                      <defs/>
                      <text text-anchor="middle" x="50%" y="16px">Y=0</text>
                    </svg>
                  </svg>
                  <line stroke="black" x1="50%" x2="50%" y1="19.2px" y2="48px"/>
                </svg>
                <line stroke="black" x1="50%" x2="75%" y1="19.2px" y2="48px"/>
              </svg>
              <line stroke="black" x1="50%" x2="33.3333%" y1="19.2px" y2="48px"/>
              <svg width="33.3333%" x="66.6667%" y="48px">
                <defs/>
                <svg width="100%" x="0" y="0px">
                  <defs/>
                  <text text-anchor="middle" x="50%" y="16px">X_3=1</text>
                </svg>
                <svg width="100%" x="0%" y="48px">
                  <defs/>
                  <svg width="100%" x="0" y="0px">
                    <defs/>
                    <text text-anchor="middle" x="50%" y="16px">Y=0</text>
                  </svg>
                </svg>
                <line stroke="black" x1="50%" x2="50%" y1="19.2px" y2="48px"/>
              </svg>
              <line stroke="black" x1="50%" x2="83.3333%" y1="19.2px" y2="48px"/>
            </svg>
            <line stroke="black" x1="50%" x2="75.5814%" y1="19.2px" y2="48px"/>
          </svg>
          <line stroke="black" x1="50%" x2="57%" y1="19.2px" y2="48px"/>
        </svg>
        <line stroke="black" x1="50%" x2="43.1034%" y1="19.2px" y2="48px"/>
        <svg width="13.7931%" x="86.2069%" y="48px">
          <defs/>
          <svg width="100%" x="0" y="0px">
            <defs/>
            <text text-anchor="middle" x="50%" y="16px">X_11=1</text>
          </svg>
          <svg width="100%" x="0%" y="48px">
            <defs/>
            <svg width="100%" x="0" y="0px">
              <defs/>
              <text text-anchor="middle" x="50%" y="16px">Y=1</text>
            </svg>
          </svg>
          <line stroke="black" x1="50%" x2="50%" y1="19.2px" y2="48px"/>
        </svg>
        <line stroke="black" x1="50%" x2="93.1034%" y1="19.2px" y2="48px"/>
      </svg>
      <line stroke="black" x1="50%" x2="43.9394%" y1="19.2px" y2="48px"/>
      <svg width="12.1212%" x="87.8788%" y="48px">
        <defs/>
        <svg width="100%" x="0" y="0px">
          <defs/>
          <text text-anchor="middle" x="50%" y="16px">X_14=1</text>
        </svg>
        <svg width="100%" x="0%" y="48px">
          <defs/>
          <svg width="100%" x="0" y="0px">
            <defs/>
            <text text-anchor="middle" x="50%" y="16px">Y=0</text>
          </svg>
        </svg>
        <line stroke="black" x1="50%" x2="50%" y1="19.2px" y2="48px"/>
      </svg>
      <line stroke="black" x1="50%" x2="93.9394%" y1="19.2px" y2="48px"/>
    </svg>
    <line stroke="black" x1="50%" x2="37.931%" y1="19.2px" y2="48px"/>
    <svg width="24.1379%" x="75.8621%" y="48px">
      <defs/>
      <svg width="100%" x="0" y="0px">
        <defs/>
        <text text-anchor="middle" x="50%" y="16px">X_12=1</text>
      </svg>
      <svg width="33.3333%" x="0%" y="48px">
        <defs/>
        <svg width="100%" x="0" y="0px">
          <defs/>
          <text text-anchor="middle" x="50%" y="16px">X_9=0</text>
        </svg>
        <svg width="100%" x="0%" y="48px">
          <defs/>
          <svg width="100%" x="0" y="0px">
            <defs/>
            <text text-anchor="middle" x="50%" y="16px">Y=1</text>
          </svg>
        </svg>
        <line stroke="black" x1="50%" x2="50%" y1="19.2px" y2="48px"/>
      </svg>
      <line stroke="black" x1="50%" x2="16.6667%" y1="19.2px" y2="48px"/>
      <svg width="66.6667%" x="33.3333%" y="48px">
        <defs/>
        <svg width="100%" x="0" y="0px">
          <defs/>
          <text text-anchor="middle" x="50%" y="16px">X_9=1</text>
        </svg>
        <svg width="50%" x="0%" y="48px">
          <defs/>
          <svg width="100%" x="0" y="0px">
            <defs/>
            <text text-anchor="middle" x="50%" y="16px">X_0=0</text>
          </svg>
          <svg width="100%" x="0%" y="48px">
            <defs/>
            <svg width="100%" x="0" y="0px">
              <defs/>
              <text text-anchor="middle" x="50%" y="16px">Y=0</text>
            </svg>
          </svg>
          <line stroke="black" x1="50%" x2="50%" y1="19.2px" y2="48px"/>
        </svg>
        <line stroke="black" x1="50%" x2="25%" y1="19.2px" y2="48px"/>
        <svg width="50%" x="50%" y="48px">
          <defs/>
          <svg width="100%" x="0" y="0px">
            <defs/>
            <text text-anchor="middle" x="50%" y="16px">X_0=1</text>
          </svg>
          <svg width="100%" x="0%" y="48px">
            <defs/>
            <svg width="100%" x="0" y="0px">
              <defs/>
              <text text-anchor="middle" x="50%" y="16px">Y=1</text>
            </svg>
          </svg>
          <line stroke="black" x1="50%" x2="50%" y1="19.2px" y2="48px"/>
        </svg>
        <line stroke="black" x1="50%" x2="75%" y1="19.2px" y2="48px"/>
      </svg>
      <line stroke="black" x1="50%" x2="66.6667%" y1="19.2px" y2="48px"/>
    </svg>
    <line stroke="black" x1="50%" x2="87.931%" y1="19.2px" y2="48px"/>
  </svg>
  <line stroke="black" x1="50%" x2="37.8261%" y1="0px" y2="32px"/>
  <svg width="24.3478%" x="75.6522%" y="32px">
    <defs/>
    <svg width="100%" x="0" y="0px">
      <defs/>
      <text text-anchor="middle" x="50%" y="16px">X_5=1</text>
    </svg>
    <svg width="25%" x="0%" y="48px">
      <defs/>
      <svg width="100%" x="0" y="0px">
        <defs/>
        <text text-anchor="middle" x="50%" y="16px">X_6=0</text>
      </svg>
      <svg width="100%" x="0%" y="48px">
        <defs/>
        <svg width="100%" x="0" y="0px">
          <defs/>
          <text text-anchor="middle" x="50%" y="16px">Y=0</text>
        </svg>
      </svg>
      <line stroke="black" x1="50%" x2="50%" y1="19.2px" y2="48px"/>
    </svg>
    <line stroke="black" x1="50%" x2="12.5%" y1="19.2px" y2="48px"/>
    <svg width="75%" x="25%" y="48px">
      <defs/>
      <svg width="100%" x="0" y="0px">
        <defs/>
        <text text-anchor="middle" x="50%" y="16px">X_6=1</text>
      </svg>
      <svg width="33.3333%" x="0%" y="48px">
        <defs/>
        <svg width="100%" x="0" y="0px">
          <defs/>
          <text text-anchor="middle" x="50%" y="16px">X_8=0</text>
        </svg>
        <svg width="100%" x="0%" y="48px">
          <defs/>
          <svg width="100%" x="0" y="0px">
            <defs/>
            <text text-anchor="middle" x="50%" y="16px">Y=0</text>
          </svg>
        </svg>
        <line stroke="black" x1="50%" x2="50%" y1="19.2px" y2="48px"/>
      </svg>
      <line stroke="black" x1="50%" x2="16.6667%" y1="19.2px" y2="48px"/>
      <svg width="66.6667%" x="33.3333%" y="48px">
        <defs/>
        <svg width="100%" x="0" y="0px">
          <defs/>
          <text text-anchor="middle" x="50%" y="16px">X_8=1</text>
        </svg>
        <svg width="50%" x="0%" y="48px">
          <defs/>
          <svg width="100%" x="0" y="0px">
            <defs/>
            <text text-anchor="middle" x="50%" y="16px">X_0=0</text>
          </svg>
          <svg width="100%" x="0%" y="48px">
            <defs/>
            <svg width="100%" x="0" y="0px">
              <defs/>
              <text text-anchor="middle" x="50%" y="16px">Y=1</text>
            </svg>
          </svg>
          <line stroke="black" x1="50%" x2="50%" y1="19.2px" y2="48px"/>
        </svg>
        <line stroke="black" x1="50%" x2="25%" y1="19.2px" y2="48px"/>
        <svg width="50%" x="50%" y="48px">
          <defs/>
          <svg width="100%" x="0" y="0px">
            <defs/>
            <text text-anchor="middle" x="50%" y="16px">X_0=1</text>
          </svg>
          <svg width="100%" x="0%" y="48px">
            <defs/>
            <svg width="100%" x="0" y="0px">
              <defs/>
              <text text-anchor="middle" x="50%" y="16px">Y=0</text>
            </svg>
          </svg>
          <line stroke="black" x1="50%" x2="50%" y1="19.2px" y2="48px"/>
        </svg>
        <line stroke="black" x1="50%" x2="75%" y1="19.2px" y2="48px"/>
      </svg>
      <line stroke="black" x1="50%" x2="66.6667%" y1="19.2px" y2="48px"/>
    </svg>
    <line stroke="black" x1="50%" x2="62.5%" y1="19.2px" y2="48px"/>
  </svg>
  <line stroke="black" x1="50%" x2="87.8261%" y1="0px" y2="32px"/>
</svg>
