<?xml version="1.0" encoding="utf-8" ?>
<svg xmlns="http://www.w3.org/2000/svg" xmlns:ev="http://www.w3.org/2001/xml-events" xmlns:xlink="http://www.w3.org/1999/xlink" baseProfile="full" height="200px" preserveAspectRatio="xMidYMid meet" style="font-family: times, serif; font-weight: normal; font-style: normal; font-size: 16px;" version="1.1" viewBox="0,0,1008.0,200.0" width="1008px">
  <defs/>
  <svg width="100%" x="0" y="0px">
    <defs/>
  </svg>
  <svg width="7.14286%" x="0%" y="32px">
    <defs/>
    <svg width="100%" x="0" y="0px">
      <defs/>
      <text text-anchor="middle" x="50%" y="16px">X_7={0}</text>
    </svg>
    <svg width="100%" x="0%" y="48px">
      <defs/>
      <svg width="100%" x="0" y="0px">
        <defs/>
        <text text-anchor="middle" x="50%" y="16px">Y=0</text>
      </svg>
    </svg>
    <line stroke="black" x1="50%" x2="50%" y1="19.2px" y2="48px"/>
  </svg>
  <line stroke="black" x1="50%" x2="3.57143%" y1="0px" y2="32px"/>
  <svg width="45.2381%" x="7.14286%" y="32px">
    <defs/>
    <svg width="100%" x="0" y="0px">
      <defs/>
      <text text-anchor="middle" x="50%" y="16px">X_7={1}</text>
    </svg>
    <svg width="15.7895%" x="0%" y="48px">
      <defs/>
      <svg width="100%" x="0" y="0px">
        <defs/>
        <text text-anchor="middle" x="50%" y="16px">X_0={0}</text>
      </svg>
      <svg width="100%" x="0%" y="48px">
        <defs/>
        <svg width="100%" x="0" y="0px">
          <defs/>
          <text text-anchor="middle" x="50%" y="16px">Y=3</text>
        </svg>
      </svg>
      <line stroke="black" x1="50%" x2="50%" y1="19.2px" y2="48px"/>
    </svg>
    <line stroke="black" x1="50%" x2="7.89474%" y1="19.2px" y2="48px"/>
    <svg width="42.1053%" x="15.7895%" y="48px">
      <defs/>
      <svg width="100%" x="0" y="0px">
        <defs/>
        <text text-anchor="middle" x="50%" y="16px">X_0={1}</text>
      </svg>
      <svg width="54.1667%" x="0%" y="48px">
        <defs/>
        <svg width="100%" x="0" y="0px">
          <defs/>
          <text text-anchor="middle" x="50%" y="16px">X_1={0,1,4}</text>
        </svg>
        <svg width="100%" x="0%" y="48px">
          <defs/>
          <svg width="100%" x="0" y="0px">
            <defs/>
            <text text-anchor="middle" x="50%" y="16px">Y=3</text>
          </svg>
        </svg>
        <line stroke="black" x1="50%" x2="50%" y1="19.2px" y2="48px"/>
      </svg>
      <line stroke="black" x1="50%" x2="27.0833%" y1="19.2px" y2="48px"/>
      <svg width="45.8333%" x="54.1667%" y="48px">
        <defs/>
        <svg width="100%" x="0" y="0px">
          <defs/>
          <text text-anchor="middle" x="50%" y="16px">X_1={2,3}</text>
        </svg>
        <svg width="100%" x="0%" y="48px">
          <defs/>
          <svg width="100%" x="0" y="0px">
            <defs/>
            <text text-anchor="middle" x="50%" y="16px">Y=1</text>
          </svg>
        </svg>
        <line stroke="black" x1="50%" x2="50%" y1="19.2px" y2="48px"/>
      </svg>
      <line stroke="black" x1="50%" x2="77.0833%" y1="19.2px" y2="48px"/>
    </svg>
    <line stroke="black" x1="50%" x2="36.8421%" y1="19.2px" y2="48px"/>
    <svg width="42.1053%" x="57.8947%" y="48px">
      <defs/>
      <svg width="100%" x="0" y="0px">
        <defs/>
        <text text-anchor="middle" x="50%" y="16px">X_0={2}</text>
      </svg>
      <svg width="45.8333%" x="0%" y="48px">
        <defs/>
        <svg width="100%" x="0" y="0px">
          <defs/>
          <text text-anchor="middle" x="50%" y="16px">X_1={0,4}</text>
        </svg>
        <svg width="100%" x="0%" y="48px">
          <defs/>
          <svg width="100%" x="0" y="0px">
            <defs/>
            <text text-anchor="middle" x="50%" y="16px">Y=3</text>
          </svg>
        </svg>
        <line stroke="black" x1="50%" x2="50%" y1="19.2px" y2="48px"/>
      </svg>
      <line stroke="black" x1="50%" x2="22.9167%" y1="19.2px" y2="48px"/>
      <svg width="54.1667%" x="45.8333%" y="48px">
        <defs/>
        <svg width="100%" x="0" y="0px">
          <defs/>
          <text text-anchor="middle" x="50%" y="16px">X_1={1,2,3}</text>
        </svg>
        <svg width="100%" x="0%" y="48px">
          <defs/>
          <svg width="100%" x="0" y="0px">
            <defs/>
            <text text-anchor="middle" x="50%" y="16px">Y=1</text>
          </svg>
        </svg>
        <line stroke="black" x1="50%" x2="50%" y1="19.2px" y2="48px"/>
      </svg>
      <line stroke="black" x1="50%" x2="72.9167%" y1="19.2px" y2="48px"/>
    </svg>
    <line stroke="black" x1="50%" x2="78.9474%" y1="19.2px" y2="48px"/>
  </svg>
  <line stroke="black" x1="50%" x2="29.7619%" y1="0px" y2="32px"/>
  <svg width="47.619%" x="52.381%" y="32px">
    <defs/>
    <svg width="100%" x="0" y="0px">
      <defs/>
      <text text-anchor="middle" x="50%" y="16px">X_7={2}</text>
    </svg>
    <svg width="33.3333%" x="0%" y="48px">
      <defs/>
      <svg width="100%" x="0" y="0px">
        <defs/>
        <text text-anchor="middle" x="50%" y="16px">X_1={0}</text>
      </svg>
      <svg width="55%" x="0%" y="48px">
        <defs/>
        <svg width="100%" x="0" y="0px">
          <defs/>
          <text text-anchor="middle" x="50%" y="16px">X_0={0,1}</text>
        </svg>
        <svg width="100%" x="0%" y="48px">
          <defs/>
          <svg width="100%" x="0" y="0px">
            <defs/>
            <text text-anchor="middle" x="50%" y="16px">Y=3</text>
          </svg>
        </svg>
        <line stroke="black" x1="50%" x2="50%" y1="19.2px" y2="48px"/>
      </svg>
      <line stroke="black" x1="50%" x2="27.5%" y1="19.2px" y2="48px"/>
      <svg width="45%" x="55%" y="48px">
        <defs/>
        <svg width="100%" x="0" y="0px">
          <defs/>
          <text text-anchor="middle" x="50%" y="16px">X_0={2}</text>
        </svg>
        <svg width="100%" x="0%" y="48px">
          <defs/>
          <svg width="100%" x="0" y="0px">
            <defs/>
            <text text-anchor="middle" x="50%" y="16px">Y=1</text>
          </svg>
        </svg>
        <line stroke="black" x1="50%" x2="50%" y1="19.2px" y2="48px"/>
      </svg>
      <line stroke="black" x1="50%" x2="77.5%" y1="19.2px" y2="48px"/>
    </svg>
    <line stroke="black" x1="50%" x2="16.6667%" y1="19.2px" y2="48px"/>
    <svg width="33.3333%" x="33.3333%" y="48px">
      <defs/>
      <svg width="100%" x="0" y="0px">
        <defs/>
        <text text-anchor="middle" x="50%" y="16px">X_1={1}</text>
      </svg>
      <svg width="45%" x="0%" y="48px">
        <defs/>
        <svg width="100%" x="0" y="0px">
          <defs/>
          <text text-anchor="middle" x="50%" y="16px">X_0={0}</text>
        </svg>
        <svg width="100%" x="0%" y="48px">
          <defs/>
          <svg width="100%" x="0" y="0px">
            <defs/>
            <text text-anchor="middle" x="50%" y="16px">Y=3</text>
          </svg>
        </svg>
        <line stroke="black" x1="50%" x2="50%" y1="19.2px" y2="48px"/>
      </svg>
      <line stroke="black" x1="50%" x2="22.5%" y1="19.2px" y2="48px"/>
      <svg width="55%" x="45%" y="48px">
        <defs/>
        <svg width="100%" x="0" y="0px">
          <defs/>
          <text text-anchor="middle" x="50%" y="16px">X_0={1,2}</text>
        </svg>
        <svg width="100%" x="0%" y="48px">
          <defs/>
          <svg width="100%" x="0" y="0px">
            <defs/>
            <text text-anchor="middle" x="50%" y="16px">Y=1</text>
          </svg>
        </svg>
        <line stroke="black" x1="50%" x2="50%" y1="19.2px" y2="48px"/>
      </svg>
      <line stroke="black" x1="50%" x2="72.5%" y1="19.2px" y2="48px"/>
    </svg>
    <line stroke="black" x1="50%" x2="50%" y1="19.2px" y2="48px"/>
    <svg width="18.3333%" x="66.6667%" y="48px">
      <defs/>
      <svg width="100%" x="0" y="0px">
        <defs/>
        <text text-anchor="middle" x="50%" y="16px">X_1={2,3}</text>
      </svg>
      <svg width="100%" x="0%" y="48px">
        <defs/>
        <svg width="100%" x="0" y="0px">
          <defs/>
          <text text-anchor="middle" x="50%" y="16px">Y=1</text>
        </svg>
      </svg>
      <line stroke="black" x1="50%" x2="50%" y1="19.2px" y2="48px"/>
    </svg>
    <line stroke="black" x1="50%" x2="75.8333%" y1="19.2px" y2="48px"/>
    <svg width="15%" x="85%" y="48px">
      <defs/>
      <svg width="100%" x="0" y="0px">
        <defs/>
        <text text-anchor="middle" x="50%" y="16px">X_1={4}</text>
      </svg>
      <svg width="100%" x="0%" y="48px">
        <defs/>
        <svg width="100%" x="0" y="0px">
          <defs/>
          <text text-anchor="middle" x="50%" y="16px">Y=3</text>
        </svg>
      </svg>
      <line stroke="black" x1="50%" x2="50%" y1="19.2px" y2="48px"/>
    </svg>
    <line stroke="black" x1="50%" x2="92.5%" y1="19.2px" y2="48px"/>
  </svg>
  <line stroke="black" x1="50%" x2="76.1905%" y1="0px" y2="32px"/>
</svg>
