<?xml version="1.0" encoding="utf-8" ?>
<svg xmlns="http://www.w3.org/2000/svg" xmlns:ev="http://www.w3.org/2001/xml-events" xmlns:xlink="http://www.w3.org/1999/xlink" baseProfile="full" height="296px" preserveAspectRatio="xMidYMid meet" style="font-family: times, serif; font-weight: normal; font-style: normal; font-size: 16px;" version="1.1" viewBox="0,0,832.0,296.0" width="832px">
  <defs/>
  <svg width="100%" x="0" y="0px">
    <defs/>
  </svg>
  <svg width="91.3462%" x="0%" y="32px">
    <defs/>
    <svg width="100%" x="0" y="0px">
      <defs/>
      <text text-anchor="middle" x="50%" y="16px">X_3={0}</text>
    </svg>
    <svg width="89.4737%" x="0%" y="48px">
      <defs/>
      <svg width="100%" x="0" y="0px">
        <defs/>
        <text text-anchor="middle" x="50%" y="16px">X_11={0}</text>
      </svg>
      <svg width="21.1765%" x="0%" y="48px">
        <defs/>
        <svg width="100%" x="0" y="0px">
          <defs/>
          <text text-anchor="middle" x="50%" y="16px">X_12={0}</text>
        </svg>
        <svg width="50%" x="0%" y="48px">
          <defs/>
          <svg width="100%" x="0" y="0px">
            <defs/>
            <text text-anchor="middle" x="50%" y="16px">X_7={0}</text>
          </svg>
          <svg width="100%" x="0%" y="48px">
            <defs/>
            <svg width="100%" x="0" y="0px">
              <defs/>
              <text text-anchor="middle" x="50%" y="16px">Y=6</text>
            </svg>
          </svg>
          <line stroke="black" x1="50%" x2="50%" y1="19.2px" y2="48px"/>
        </svg>
        <line stroke="black" x1="50%" x2="25%" y1="19.2px" y2="48px"/>
        <svg width="50%" x="50%" y="48px">
          <defs/>
          <svg width="100%" x="0" y="0px">
            <defs/>
            <text text-anchor="middle" x="50%" y="16px">X_7={1}</text>
          </svg>
          <svg width="100%" x="0%" y="48px">
            <defs/>
            <svg width="100%" x="0" y="0px">
              <defs/>
              <text text-anchor="middle" x="50%" y="16px">Y=2</text>
            </svg>
          </svg>
          <line stroke="black" x1="50%" x2="50%" y1="19.2px" y2="48px"/>
        </svg>
        <line stroke="black" x1="50%" x2="75%" y1="19.2px" y2="48px"/>
      </svg>
      <line stroke="black" x1="50%" x2="10.5882%" y1="19.2px" y2="48px"/>
      <svg width="11.7647%" x="21.1765%" y="48px">
        <defs/>
        <svg width="100%" x="0" y="0px">
          <defs/>
          <text text-anchor="middle" x="50%" y="16px">X_12={1}</text>
        </svg>
        <svg width="100%" x="0%" y="48px">
          <defs/>
          <svg width="100%" x="0" y="0px">
            <defs/>
            <text text-anchor="middle" x="50%" y="16px">Y=1</text>
          </svg>
        </svg>
        <line stroke="black" x1="50%" x2="50%" y1="19.2px" y2="48px"/>
      </svg>
      <line stroke="black" x1="50%" x2="27.0588%" y1="19.2px" y2="48px"/>
      <svg width="31.7647%" x="32.9412%" y="48px">
        <defs/>
        <svg width="100%" x="0" y="0px">
          <defs/>
          <text text-anchor="middle" x="50%" y="16px">X_12={2}</text>
        </svg>
        <svg width="33.3333%" x="0%" y="48px">
          <defs/>
          <svg width="100%" x="0" y="0px">
            <defs/>
            <text text-anchor="middle" x="50%" y="16px">X_5={0}</text>
          </svg>
          <svg width="100%" x="0%" y="48px">
            <defs/>
            <svg width="100%" x="0" y="0px">
              <defs/>
              <text text-anchor="middle" x="50%" y="16px">Y=2</text>
            </svg>
          </svg>
          <line stroke="black" x1="50%" x2="50%" y1="19.2px" y2="48px"/>
        </svg>
        <line stroke="black" x1="50%" x2="16.6667%" y1="19.2px" y2="48px"/>
        <svg width="66.6667%" x="33.3333%" y="48px">
          <defs/>
          <svg width="100%" x="0" y="0px">
            <defs/>
            <text text-anchor="middle" x="50%" y="16px">X_5={1}</text>
          </svg>
          <svg width="50%" x="0%" y="48px">
            <defs/>
            <svg width="100%" x="0" y="0px">
              <defs/>
              <text text-anchor="middle" x="50%" y="16px">X_7={0}</text>
            </svg>
            <svg width="100%" x="0%" y="48px">
              <defs/>
              <svg width="100%" x="0" y="0px">
                <defs/>
                <text text-anchor="middle" x="50%" y="16px">Y=6</text>
              </svg>
            </svg>
            <line stroke="black" x1="50%" x2="50%" y1="19.2px" y2="48px"/>
          </svg>
          <line stroke="black" x1="50%" x2="25%" y1="19.2px" y2="48px"/>
          <svg width="50%" x="50%" y="48px">
            <defs/>
            <svg width="100%" x="0" y="0px">
              <defs/>
              <text text-anchor="middle" x="50%" y="16px">X_7={1}</text>
            </svg>
            <svg width="100%" x="0%" y="48px">
              <defs/>
              <svg width="100%" x="0" y="0px">
                <defs/>
                <text text-anchor="middle" x="50%" y="16px">Y=4</text>
              </svg>
            </svg>
            <line stroke="black" x1="50%" x2="50%" y1="19.2px" y2="48px"/>
          </svg>
          <line stroke="black" x1="50%" x2="75%" y1="19.2px" y2="48px"/>
        </svg>
        <line stroke="black" x1="50%" x2="66.6667%" y1="19.2px" y2="48px"/>
      </svg>
      <line stroke="black" x1="50%" x2="48.8235%" y1="19.2px" y2="48px"/>
      <svg width="14.1176%" x="64.7059%" y="48px">
        <defs/>
        <svg width="100%" x="0" y="0px">
          <defs/>
          <text text-anchor="middle" x="50%" y="16px">X_12={3,5}</text>
        </svg>
        <svg width="100%" x="0%" y="48px">
          <defs/>
          <svg width="100%" x="0" y="0px">
            <defs/>
            <text text-anchor="middle" x="50%" y="16px">Y=6</text>
          </svg>
        </svg>
        <line stroke="black" x1="50%" x2="50%" y1="19.2px" y2="48px"/>
      </svg>
      <line stroke="black" x1="50%" x2="71.7647%" y1="19.2px" y2="48px"/>
      <svg width="21.1765%" x="78.8235%" y="48px">
        <defs/>
        <svg width="100%" x="0" y="0px">
          <defs/>
          <text text-anchor="middle" x="50%" y="16px">X_12={4}</text>
        </svg>
        <svg width="50%" x="0%" y="48px">
          <defs/>
          <svg width="100%" x="0" y="0px">
            <defs/>
            <text text-anchor="middle" x="50%" y="16px">X_5={0}</text>
          </svg>
          <svg width="100%" x="0%" y="48px">
            <defs/>
            <svg width="100%" x="0" y="0px">
              <defs/>
              <text text-anchor="middle" x="50%" y="16px">Y=5</text>
            </svg>
          </svg>
          <line stroke="black" x1="50%" x2="50%" y1="19.2px" y2="48px"/>
        </svg>
        <line stroke="black" x1="50%" x2="25%" y1="19.2px" y2="48px"/>
        <svg width="50%" x="50%" y="48px">
          <defs/>
          <svg width="100%" x="0" y="0px">
            <defs/>
            <text text-anchor="middle" x="50%" y="16px">X_5={1}</text>
          </svg>
          <svg width="100%" x="0%" y="48px">
            <defs/>
            <svg width="100%" x="0" y="0px">
              <defs/>
              <text text-anchor="middle" x="50%" y="16px">Y=6</text>
            </svg>
          </svg>
          <line stroke="black" x1="50%" x2="50%" y1="19.2px" y2="48px"/>
        </svg>
        <line stroke="black" x1="50%" x2="75%" y1="19.2px" y2="48px"/>
      </svg>
      <line stroke="black" x1="50%" x2="89.4118%" y1="19.2px" y2="48px"/>
    </svg>
    <line stroke="black" x1="50%" x2="44.7368%" y1="19.2px" y2="48px"/>
    <svg width="10.5263%" x="89.4737%" y="48px">
      <defs/>
      <svg width="100%" x="0" y="0px">
        <defs/>
        <text text-anchor="middle" x="50%" y="16px">X_11={1}</text>
      </svg>
      <svg width="100%" x="0%" y="48px">
        <defs/>
        <svg width="100%" x="0" y="0px">
          <defs/>
          <text text-anchor="middle" x="50%" y="16px">Y=3</text>
        </svg>
      </svg>
      <line stroke="black" x1="50%" x2="50%" y1="19.2px" y2="48px"/>
    </svg>
    <line stroke="black" x1="50%" x2="94.7368%" y1="19.2px" y2="48px"/>
  </svg>
  <line stroke="black" x1="50%" x2="45.6731%" y1="0px" y2="32px"/>
  <svg width="8.65385%" x="91.3462%" y="32px">
    <defs/>
    <svg width="100%" x="0" y="0px">
      <defs/>
      <text text-anchor="middle" x="50%" y="16px">X_3={1}</text>
    </svg>
    <svg width="100%" x="0%" y="48px">
      <defs/>
      <svg width="100%" x="0" y="0px">
        <defs/>
        <text text-anchor="middle" x="50%" y="16px">Y=0</text>
      </svg>
    </svg>
    <line stroke="black" x1="50%" x2="50%" y1="19.2px" y2="48px"/>
  </svg>
  <line stroke="black" x1="50%" x2="95.6731%" y1="0px" y2="32px"/>
</svg>
