<?xml version="1.0" encoding="utf-8" ?>
<svg xmlns="http://www.w3.org/2000/svg" xmlns:ev="http://www.w3.org/2001/xml-events" xmlns:xlink="http://www.w3.org/1999/xlink" baseProfile="full" height="344px" preserveAspectRatio="xMidYMid meet" style="font-family: times, serif; font-weight: normal; font-style: normal; font-size: 16px;" version="1.1" viewBox="0,0,544.0,344.0" width="544px">
  <defs/>
  <svg width="100%" x="0" y="0px">
    <defs/>
  </svg>
  <svg width="10.2941%" x="0%" y="32px">
    <defs/>
    <svg width="100%" x="0" y="0px">
      <defs/>
      <text text-anchor="middle" x="50%" y="16px">X_6=0</text>
    </svg>
    <svg width="100%" x="0%" y="48px">
      <defs/>
      <svg width="100%" x="0" y="0px">
        <defs/>
        <text text-anchor="middle" x="50%" y="16px">Y=0</text>
      </svg>
    </svg>
    <line stroke="black" x1="50%" x2="50%" y1="19.2px" y2="48px"/>
  </svg>
  <line stroke="black" x1="50%" x2="5.14706%" y1="0px" y2="32px"/>
  <svg width="89.7059%" x="10.2941%" y="32px">
    <defs/>
    <svg width="100%" x="0" y="0px">
      <defs/>
      <text text-anchor="middle" x="50%" y="16px">X_6=1</text>
    </svg>
    <svg width="60.6557%" x="0%" y="48px">
      <defs/>
      <svg width="100%" x="0" y="0px">
        <defs/>
        <text text-anchor="middle" x="50%" y="16px">X_16=0</text>
      </svg>
      <svg width="18.9189%" x="0%" y="48px">
        <defs/>
        <svg width="100%" x="0" y="0px">
          <defs/>
          <text text-anchor="middle" x="50%" y="16px">X_2=0</text>
        </svg>
        <svg width="100%" x="0%" y="48px">
          <defs/>
          <svg width="100%" x="0" y="0px">
            <defs/>
            <text text-anchor="middle" x="50%" y="16px">Y=1</text>
          </svg>
        </svg>
        <line stroke="black" x1="50%" x2="50%" y1="19.2px" y2="48px"/>
      </svg>
      <line stroke="black" x1="50%" x2="9.45946%" y1="19.2px" y2="48px"/>
      <svg width="81.0811%" x="18.9189%" y="48px">
        <defs/>
        <svg width="100%" x="0" y="0px">
          <defs/>
          <text text-anchor="middle" x="50%" y="16px">X_2=1</text>
        </svg>
        <svg width="73.3333%" x="0%" y="48px">
          <defs/>
          <svg width="100%" x="0" y="0px">
            <defs/>
            <text text-anchor="middle" x="50%" y="16px">X_10=0</text>
          </svg>
          <svg width="36.3636%" x="0%" y="48px">
            <defs/>
            <svg width="100%" x="0" y="0px">
              <defs/>
              <text text-anchor="middle" x="50%" y="16px">X_18=0</text>
            </svg>
            <svg width="100%" x="0%" y="48px">
              <defs/>
              <svg width="100%" x="0" y="0px">
                <defs/>
                <text text-anchor="middle" x="50%" y="16px">Y=4</text>
              </svg>
            </svg>
            <line stroke="black" x1="50%" x2="50%" y1="19.2px" y2="48px"/>
          </svg>
          <line stroke="black" x1="50%" x2="18.1818%" y1="19.2px" y2="48px"/>
          <svg width="63.6364%" x="36.3636%" y="48px">
            <defs/>
            <svg width="100%" x="0" y="0px">
              <defs/>
              <text text-anchor="middle" x="50%" y="16px">X_18=1</text>
            </svg>
            <svg width="50%" x="0%" y="48px">
              <defs/>
              <svg width="100%" x="0" y="0px">
                <defs/>
                <text text-anchor="middle" x="50%" y="16px">X_4=0</text>
              </svg>
              <svg width="100%" x="0%" y="48px">
                <defs/>
                <svg width="100%" x="0" y="0px">
                  <defs/>
                  <text text-anchor="middle" x="50%" y="16px">Y=3</text>
                </svg>
              </svg>
              <line stroke="black" x1="50%" x2="50%" y1="19.2px" y2="48px"/>
            </svg>
            <line stroke="black" x1="50%" x2="25%" y1="19.2px" y2="48px"/>
            <svg width="50%" x="50%" y="48px">
              <defs/>
              <svg width="100%" x="0" y="0px">
                <defs/>
                <text text-anchor="middle" x="50%" y="16px">X_4=1</text>
              </svg>
              <svg width="100%" x="0%" y="48px">
                <defs/>
                <svg width="100%" x="0" y="0px">
                  <defs/>
                  <text text-anchor="middle" x="50%" y="16px">Y=2</text>
                </svg>
              </svg>
              <line stroke="black" x1="50%" x2="50%" y1="19.2px" y2="48px"/>
            </svg>
            <line stroke="black" x1="50%" x2="75%" y1="19.2px" y2="48px"/>
          </svg>
          <line stroke="black" x1="50%" x2="68.1818%" y1="19.2px" y2="48px"/>
        </svg>
        <line stroke="black" x1="50%" x2="36.6667%" y1="19.2px" y2="48px"/>
        <svg width="26.6667%" x="73.3333%" y="48px">
          <defs/>
          <svg width="100%" x="0" y="0px">
            <defs/>
            <text text-anchor="middle" x="50%" y="16px">X_10=1</text>
          </svg>
          <svg width="100%" x="0%" y="48px">
            <defs/>
            <svg width="100%" x="0" y="0px">
              <defs/>
              <text text-anchor="middle" x="50%" y="16px">Y=2</text>
            </svg>
          </svg>
          <line stroke="black" x1="50%" x2="50%" y1="19.2px" y2="48px"/>
        </svg>
        <line stroke="black" x1="50%" x2="86.6667%" y1="19.2px" y2="48px"/>
      </svg>
      <line stroke="black" x1="50%" x2="59.4595%" y1="19.2px" y2="48px"/>
    </svg>
    <line stroke="black" x1="50%" x2="30.3279%" y1="19.2px" y2="48px"/>
    <svg width="39.3443%" x="60.6557%" y="48px">
      <defs/>
      <svg width="100%" x="0" y="0px">
        <defs/>
        <text text-anchor="middle" x="50%" y="16px">X_16=1</text>
      </svg>
      <svg width="33.3333%" x="0%" y="48px">
        <defs/>
        <svg width="100%" x="0" y="0px">
          <defs/>
          <text text-anchor="middle" x="50%" y="16px">X_28=0</text>
        </svg>
        <svg width="100%" x="0%" y="48px">
          <defs/>
          <svg width="100%" x="0" y="0px">
            <defs/>
            <text text-anchor="middle" x="50%" y="16px">Y=6</text>
          </svg>
        </svg>
        <line stroke="black" x1="50%" x2="50%" y1="19.2px" y2="48px"/>
      </svg>
      <line stroke="black" x1="50%" x2="16.6667%" y1="19.2px" y2="48px"/>
      <svg width="66.6667%" x="33.3333%" y="48px">
        <defs/>
        <svg width="100%" x="0" y="0px">
          <defs/>
          <text text-anchor="middle" x="50%" y="16px">X_28=1</text>
        </svg>
        <svg width="50%" x="0%" y="48px">
          <defs/>
          <svg width="100%" x="0" y="0px">
            <defs/>
            <text text-anchor="middle" x="50%" y="16px">X_10=0</text>
          </svg>
          <svg width="100%" x="0%" y="48px">
            <defs/>
            <svg width="100%" x="0" y="0px">
              <defs/>
              <text text-anchor="middle" x="50%" y="16px">Y=6</text>
            </svg>
          </svg>
          <line stroke="black" x1="50%" x2="50%" y1="19.2px" y2="48px"/>
        </svg>
        <line stroke="black" x1="50%" x2="25%" y1="19.2px" y2="48px"/>
        <svg width="50%" x="50%" y="48px">
          <defs/>
          <svg width="100%" x="0" y="0px">
            <defs/>
            <text text-anchor="middle" x="50%" y="16px">X_10=1</text>
          </svg>
          <svg width="100%" x="0%" y="48px">
            <defs/>
            <svg width="100%" x="0" y="0px">
              <defs/>
              <text text-anchor="middle" x="50%" y="16px">Y=5</text>
            </svg>
          </svg>
          <line stroke="black" x1="50%" x2="50%" y1="19.2px" y2="48px"/>
        </svg>
        <line stroke="black" x1="50%" x2="75%" y1="19.2px" y2="48px"/>
      </svg>
      <line stroke="black" x1="50%" x2="66.6667%" y1="19.2px" y2="48px"/>
    </svg>
    <line stroke="black" x1="50%" x2="80.3279%" y1="19.2px" y2="48px"/>
  </svg>
  <line stroke="black" x1="50%" x2="55.1471%" y1="0px" y2="32px"/>
</svg>
